<svg xmlns="http://www.w3.org/2000/svg" data-name="Layer 1" viewBox="0 0 512 512"><path fill="#00efd1" d="M231.98,170.04q-.18-3.06-.18-6.17A112,112,0,1,1,350.83,275.64c-2.32.16-4.67.23-7.03.23A111.986,111.986,0,0,1,231.98,170.04ZM345.45,226.6c51.38-20.81,68.73-58.32,63.28-86.41-3.8-18.83-17.18-31.06-34.53-31.06-9.59,0-20.16,3.96-30.4,11.4-10.41-7.77-20.82-11.73-30.57-11.73-17.35,0-30.73,12.23-34.37,31.39-5.45,28.42,12.06,66.09,63.28,86.41a4.315,4.315,0,0,0,3.31,0Z"/><path fill="#00acea" d="M408.73,140.19c5.45,28.09-11.9,65.6-63.28,86.41a4.315,4.315,0,0,1-3.31,0c-51.22-20.32-68.73-57.99-63.28-86.41,3.64-19.16,17.02-31.39,34.37-31.39,9.75,0,20.16,3.96,30.57,11.73,10.24-7.44,20.81-11.4,30.4-11.4C391.55,109.13,404.93,121.36,408.73,140.19Z"/><path fill="#d4e1f4" d="M350.83,275.64v.01a574.649,574.649,0,0,1-72.31,181.16,6.981,6.981,0,0,1-12.67-1.79l-6.24-22.49a153.445,153.445,0,0,0-41.78-69.86l-2.48-2.37a13.942,13.942,0,0,0-19.7.42l-2.05,2.13a153.422,153.422,0,0,0-37.9,67.94l-6.13,23.78a6.987,6.987,0,0,1-12.71,1.9C81.04,365.58,62.33,277.2,56.67,225.76c-5.31-48.41,35-89.72,83.54-85.9,11.31.9,20.87,12.75,40.93,21.34,12.16,5.21,28.2,9.21,50.84,8.84A111.986,111.986,0,0,0,343.8,275.87C346.16,275.87,348.51,275.8,350.83,275.64Z"/><path fill="#00acea" d="M232.85,148.48h.01a111.634,111.634,0,0,0-1.06,15.39q0,3.1.18,6.17c-22.64.37-38.68-3.63-50.84-8.84l.01-.03C188.84,159.15,211.38,153.47,232.85,148.48Z"/></svg>