<svg xmlns="http://www.w3.org/2000/svg" viewBox="0 0 512 512"><rect width="16" height="80" x="232" y="384" fill="#ccc"/><path fill="#ccc" d="M352,244a4,4,0,0,1-4-4V188a8,8,0,0,0-16,0v12a4,4,0,0,1-8,0V188a16,16,0,0,1,32,0v52A4,4,0,0,1,352,244Z"/><path fill="#aed8f4" d="M272,232h96a0,0,0,0,1,0,0v15.1A16.9,16.9,0,0,1,351.1,264H288.9A16.9,16.9,0,0,1,272,247.1V232A0,0,0,0,1,272,232Z"/><path fill="#e6e6e6" d="M264,100a4,4,0,0,1-4-4V63.69a19.69,19.69,0,0,0-31.991-15.375L194.5,75.123a4,4,0,1,1-5-6.246l33.511-26.809A27.69,27.69,0,0,1,268,63.69V96A4,4,0,0,1,264,100Z"/><path fill="#aed8f4" d="M36.017 152h0a12 12 0 0112 12v52a0 0 0 010 0h-24a0 0 0 010 0V164a12 12 0 0112-12zM416 408h64a8 8 0 018 8v0a8 8 0 01-8 8H416a0 0 0 010 0V408a0 0 0 010 0z"/><path fill="#e6e6e6" d="M184,352H296a0,0,0,0,1,0,0v16.151A23.849,23.849,0,0,1,272.151,392h-64.3A23.849,23.849,0,0,1,184,368.151V352A0,0,0,0,1,184,352Z"/><path fill="#ccc" d="M260,88h8a4,4,0,0,1,4,4V320a0,0,0,0,1,0,0H256a0,0,0,0,1,0,0V92A4,4,0,0,1,260,88Z"/><path fill="#95c3e9" d="M88.7,180.366h0a16,16,0,0,1,16,16v160a0,0,0,0,1,0,0h-32a0,0,0,0,1,0,0v-160A16,16,0,0,1,88.7,180.366Z" transform="rotate(-42.567 88.707 268.367)"/><path fill="#95c3e9" d="M316.154,364.229h112a16,16,0,0,1,16,16v0a16,16,0,0,1-16,16h-112a0,0,0,0,1,0,0v-32A0,0,0,0,1,316.154,364.229Z" transform="rotate(38.31 380.153 380.227)"/><rect width="224" height="48" x="128.017" y="312" fill="#aed8f4" rx="24" ry="24"/><path fill="#ccc" d="M216,92a3.976,3.976,0,0,1-2.215-.672l-48-32a4,4,0,0,1,4.438-6.656l48,32A4,4,0,0,1,216,92Z"/><rect width="192" height="16" x="144" y="456" fill="#aed8f4" rx="8" ry="8"/></svg>