<svg xmlns="http://www.w3.org/2000/svg" width="2950" height="2950" fill="none" viewBox="0 0 2950 2950"><g clip-path="url(#clip0_561_11033)"><path fill="#C1DCDE" fill-rule="evenodd" d="M403.324 2241.31C322.66 2241.31 259.281 2137.6 207.425 2045.41L201.663 2033.89C74.9056 1797.66 97.9525 1624.81 109.476 1503.81C115.238 1440.43 120.999 1394.34 103.714 1359.77C92.1908 1342.48 80.6673 1325.2 74.9056 1307.91C28.8118 1233.01 -5.75847 1169.63 0.00324931 1031.35C0.00324931 887.308 63.3822 789.359 178.617 737.504C276.566 685.648 374.515 720.218 455.179 749.027C483.988 760.55 512.796 772.074 541.605 777.836C628.031 800.883 679.886 783.597 743.265 754.789C754.788 754.789 766.312 749.027 777.835 743.265C795.12 737.504 818.167 749.027 829.691 772.074C835.452 789.359 829.691 806.644 812.406 818.168L991.019 1480.77V1486.53L973.734 2016.61C979.495 2016.61 985.257 2016.61 985.257 2022.37C1008.3 2028.13 1014.07 2056.94 1002.54 2074.22C979.495 2120.32 950.687 2160.65 910.355 2195.22C858.499 2241.31 812.406 2241.31 789.359 2229.79C772.074 2224.03 731.742 2206.74 714.456 2137.6C714.456 2131.84 714.456 2131.84 714.456 2131.84C714.456 2097.27 714.456 2056.94 720.218 2016.61C720.218 1987.8 720.218 1964.75 720.218 1947.46C725.98 1734.28 674.124 1636.33 616.507 1630.57C576.175 1624.81 518.558 1688.19 501.273 1791.9C495.511 1820.71 501.273 1884.09 501.273 1953.23C501.273 2091.51 501.273 2149.12 483.988 2177.93C460.941 2229.79 426.37 2241.31 403.324 2241.31Z" clip-rule="evenodd"/><path fill="#F5F5F5" fill-rule="evenodd" d="M691.41 777.835C708.695 772.074 725.98 766.312 743.266 754.789C754.789 754.789 766.312 749.027 777.836 743.265C795.121 737.503 818.168 749.027 829.691 772.074C835.453 789.359 829.691 806.644 812.406 818.168L991.02 1480.77V1486.53L973.734 2016.61C979.496 2016.61 985.258 2016.61 985.258 2022.37C1008.3 2028.13 1014.07 2056.94 1002.54 2074.22C985.258 2120.32 956.449 2154.89 921.879 2183.69C858.5 2062.7 818.168 1930.18 800.883 1791.9C789.359 1693.95 800.883 1601.76 806.645 1503.81C812.406 1469.24 823.93 1382.82 806.645 1354.01C795.121 1330.96 783.598 1313.68 772.074 1290.63C760.551 1267.58 749.027 1244.53 731.742 1215.73C685.648 1117.78 674.125 1031.35 674.125 921.878C674.125 870.023 679.887 818.168 691.41 777.835Z" clip-rule="evenodd"/><path fill="#C1DCDE" fill-rule="evenodd" d="M2126.07 2241.31C2051.17 2241.31 1982.03 2131.83 1947.46 2068.45C1935.94 2051.17 1947.46 2028.12 1964.74 2016.6C1964.74 2016.6 1964.74 2016.6 1970.51 2010.84L2137.6 818.162C2120.31 806.638 2108.79 783.592 2120.31 766.306C2131.83 743.26 2154.88 737.498 2172.17 749.021C2206.74 760.545 2235.54 772.068 2264.35 777.83H2270.12C2362.3 800.877 2414.16 777.83 2477.54 754.783C2512.11 743.26 2546.68 725.974 2592.77 720.213C2708.01 697.166 2805.95 720.213 2869.33 800.877C2955.76 904.588 2973.04 1088.96 2909.67 1250.29C2880.86 1313.67 2857.81 1342.48 2846.29 1359.76C2829 1382.81 2829 1382.81 2846.29 1526.85C2869.33 1757.32 2777.15 2079.98 2644.63 2195.21C2581.25 2247.07 2540.92 2235.54 2517.87 2229.78C2494.82 2224.02 2460.25 2200.97 2448.73 2131.83C2442.97 2097.26 2442.97 2045.41 2448.73 1999.31C2448.73 1982.03 2448.73 1958.98 2448.73 1947.46C2454.49 1734.28 2402.63 1630.56 2345.02 1630.56C2304.69 1624.8 2247.07 1688.18 2229.78 1791.89C2229.78 1814.94 2229.78 1861.03 2229.78 1918.65C2235.54 2085.74 2229.78 2149.12 2212.5 2177.93C2189.45 2229.78 2154.88 2241.31 2126.07 2241.31C2131.83 2241.31 2131.83 2241.31 2126.07 2241.31Z" clip-rule="evenodd"/><path fill="#F5F5F5" fill-rule="evenodd" d="M2033.88 2189.46C1999.31 2154.89 1964.74 2103.03 1947.46 2068.46C1935.94 2051.18 1947.46 2028.13 1964.74 2016.61C1964.74 2016.61 1964.74 2016.61 1970.51 2010.84L2137.6 818.168C2120.31 806.645 2108.79 783.598 2120.31 766.312C2131.83 743.266 2154.88 737.504 2172.17 749.027C2200.97 760.551 2229.78 772.074 2258.59 777.836C2270.12 812.406 2275.88 852.738 2275.88 893.07C2281.64 1002.54 2264.35 1106.25 2224.02 1204.2C2200.97 1261.82 2172.17 1307.91 2143.36 1354.01C2137.6 1354.01 2137.6 1359.77 2137.6 1359.77C2137.6 1371.29 2137.6 1394.34 2137.6 1400.1C2143.36 1446.2 2149.12 1492.29 2149.12 1538.38C2149.12 1538.38 2149.12 1538.38 2149.12 1544.14C2160.64 1699.71 2143.36 1866.8 2097.26 2016.61C2079.98 2074.22 2056.93 2131.84 2033.88 2189.46Z" clip-rule="evenodd"/><path fill="#C1DCDE" fill-rule="evenodd" d="M1215.72 2414.16C1129.3 2414.16 1054.39 2298.93 985.254 2183.69C985.254 2177.93 979.492 2172.17 979.492 2166.41C823.926 1872.56 846.973 1665.14 864.258 1509.57C875.781 1428.91 881.543 1371.29 858.496 1325.2C846.973 1302.15 835.449 1284.87 823.926 1267.58C772.07 1169.63 725.977 1094.73 731.738 921.878C731.738 754.789 800.879 639.554 944.922 564.652C1065.92 507.035 1181.15 547.367 1279.1 587.699C1313.67 604.984 1354 616.507 1382.81 622.269C1503.81 651.078 1572.95 628.031 1659.38 593.46C1699.71 576.175 1740.04 558.89 1791.89 547.367C1930.18 518.558 2051.17 553.128 2131.84 651.078C2183.69 714.457 2212.5 800.882 2218.26 898.832C2224.02 991.019 2206.74 1094.73 2166.41 1186.92C2137.6 1261.82 2108.79 1296.39 2091.5 1319.44C2068.46 1354.01 2068.46 1359.77 2091.5 1544.14C2108.79 1676.66 2091.5 1843.75 2039.65 1999.32C1993.55 2160.65 1918.65 2293.17 1843.75 2356.55C1797.66 2402.64 1745.8 2414.16 1699.71 2402.64C1659.38 2385.35 1636.33 2350.78 1624.8 2293.17C1619.04 2252.84 1624.8 2189.46 1624.8 2137.6C1624.8 2108.79 1630.57 2085.75 1630.57 2062.7C1636.33 1786.14 1561.43 1659.38 1486.52 1653.62C1423.14 1647.85 1348.24 1728.52 1330.96 1866.8C1325.2 1907.13 1325.2 1993.56 1325.2 2079.98C1330.96 2241.31 1325.2 2316.21 1313.67 2350.78C1279.1 2402.64 1244.53 2414.16 1215.72 2414.16Z" clip-rule="evenodd"/><path fill="#4F71B6" fill-rule="evenodd" d="M40.332 1250.29C28.8086 1221.48 17.2852 1192.68 11.5234 1152.34C259.277 1238.77 616.504 1313.67 956.445 1354L973.73 1440.43C651.074 1400.1 299.609 1330.96 40.332 1250.29Z" clip-rule="evenodd"/><path fill="#4F71B6" fill-rule="evenodd" d="M956.445 1354L973.73 1440.43C921.875 1434.67 870.02 1428.91 818.164 1417.38 818.164 1394.34 818.164 1365.53 806.641 1354 806.641 1348.24 800.879 1342.48 795.117 1336.72 852.734 1342.48 904.59 1348.24 956.445 1354zM2051.17 1451.96L2062.7 1371.29C2356.54 1342.48 2673.44 1290.63 2915.43 1227.25 2915.43 1233.01 2909.67 1238.77 2909.67 1250.3 2892.38 1279.11 2880.86 1302.15 2869.34 1319.44 2627.34 1377.05 2333.5 1428.91 2051.17 1451.96z" clip-rule="evenodd"/><path fill="#4F71B6" fill-rule="evenodd" d="M2051.17 1451.96L2062.7 1371.29C2085.74 1365.53 2108.79 1365.53 2137.6 1365.53C2137.6 1371.29 2137.6 1394.34 2137.6 1400.1C2143.36 1417.39 2143.36 1428.91 2143.36 1440.43C2114.55 1446.2 2079.98 1451.96 2051.17 1451.96Z" clip-rule="evenodd"/><path fill="#4F71B6" fill-rule="evenodd" d="M1578.71 1475C1538.38 1475 1492.29 1475 1451.95 1469.24C1411.62 1469.24 1371.29 1469.24 1330.96 1469.24C1307.91 1469.24 1290.62 1451.96 1290.62 1428.91C1290.62 1405.86 1307.91 1388.58 1330.96 1388.58C1371.29 1388.58 1411.62 1388.58 1451.95 1388.58C1492.29 1394.34 1538.38 1394.34 1578.71 1394.34C1601.76 1394.34 1619.04 1411.62 1619.04 1434.67C1619.04 1457.72 1601.76 1475 1578.71 1475ZM875.781 1428.91C875.781 1394.34 875.781 1365.53 864.258 1342.48C973.73 1359.77 1077.44 1371.29 1181.15 1377.05C1204.2 1377.05 1221.48 1400.1 1215.72 1417.39C1215.72 1440.43 1198.44 1457.72 1175.39 1457.72C1077.44 1451.96 979.492 1440.43 875.781 1428.91ZM2074.22 1371.29C2074.22 1388.58 2074.22 1411.62 2079.98 1451.96C1964.75 1457.72 1843.75 1469.24 1734.28 1469.24C1716.99 1469.24 1693.95 1451.96 1693.95 1428.91C1693.95 1405.86 1711.23 1388.58 1734.28 1388.58C1843.75 1388.58 1958.98 1382.82 2074.22 1371.29Z" clip-rule="evenodd"/><path fill="#4F71B6" fill-rule="evenodd" d="M1135.06 1457.71V1371.29C1152.35 1377.05 1163.87 1377.05 1181.16 1377.05 1198.44 1377.05 1215.73 1394.34 1215.73 1411.62V1417.38C1215.73 1440.43 1198.44 1457.71 1175.39 1457.71 1163.87 1457.71 1152.35 1457.71 1135.06 1457.71zM1377.05 1388.57V1469.24C1365.53 1469.24 1348.25 1469.24 1330.96 1469.24 1319.44 1469.24 1302.15 1457.71 1296.39 1446.19V1411.62C1302.15 1400.1 1319.44 1388.57 1330.96 1388.57 1348.25 1388.57 1365.53 1388.57 1377.05 1388.57zM1538.38 1475V1394.34C1555.66 1394.34 1567.18 1394.34 1578.71 1394.34 1601.75 1394.34 1619.04 1411.62 1619.04 1434.67 1619.04 1457.72 1601.75 1475 1578.71 1475 1567.18 1475 1555.66 1475 1538.38 1475zM1780.37 1388.58V1469.24C1768.84 1469.24 1751.56 1469.24 1734.27 1469.24 1722.75 1469.24 1705.46 1457.72 1699.7 1446.2V1411.62C1705.46 1400.1 1722.75 1388.58 1734.27 1388.58 1751.56 1388.58 1763.08 1388.58 1780.37 1388.58z" clip-rule="evenodd"/><path fill="#4F71B6" fill-rule="evenodd" d="M1336.72 1596H1175.39C1152.35 1596 1135.06 1578.71 1135.06 1555.67V1313.68C1135.06 1290.63 1152.35 1273.34 1175.39 1273.34H1336.72C1359.77 1273.34 1377.05 1290.63 1377.05 1313.68V1555.67C1377.05 1578.71 1359.77 1596 1336.72 1596zM1740.04 1596H1578.71C1555.66 1596 1538.38 1578.71 1538.38 1555.67V1313.68C1538.38 1290.63 1555.66 1273.34 1578.71 1273.34H1740.04C1763.08 1273.34 1780.37 1290.63 1780.37 1313.68V1555.67C1780.37 1578.71 1763.08 1596 1740.04 1596z" clip-rule="evenodd"/></g><defs><clipPath id="clip0_561_11033"><rect width="2950" height="2950" fill="#fff"/></clipPath></defs></svg>