<svg xmlns="http://www.w3.org/2000/svg" enable-background="new 0 0 64 64" viewBox="0 0 64 64"><path fill="#59595b" d="M59.8898621,31.5952549c-0.25-0.4778728-0.8599854-0.6729374-1.3500366-0.4193592
		c-0.2799683,0.1365528-0.7799683,0.2828064-1.4400024,0.429121c0.75-1.0240211,1.4000244-1.9895267,1.8200073-2.7794933
		c0.9800415-1.8335114,0.7900391-3.7158318-0.5299683-5.0519466c-1.25-1.2678375-3.2200317-1.6871967-4.7300415-0.9947338
		c-0.8499756,0.3803101-1.7799683,0.3900719-2.6399536,0.0292263c-0.8900146-0.3706055-1.5800171-1.1118202-1.9100342-2.0285168
		l-0.039978-0.1170864C48.559845,19.1313457,46.8698425,18.0097618,45.0398254,18h-0.0299683
		c-1.8200073,0-3.3099976,1.1215839-3.9700317,3.0136089c-0.5199585,1.4726658-0.9599609,3.8132763-1.3299561,6.1637077
		c-0.1300049-0.9265175-0.2800293-1.7749977-0.460022-2.4479351c-0.5200195-1.9992905-1.9699707-3.2671871-3.8499756-3.3939781
		c-1.8000488-0.1170273-3.5599976,0.8484802-4.2000122,2.369957c-0.3699951,0.8289547-1.0599976,1.4531422-1.9500122,1.7457104
		c-0.2199707,0.0780392-0.4500122,0.1170273-0.6799927,0.1462555c-0.0900269-1.2483139-0.6900024-2.3308487-1.7700195-3.0428352
		c-1.4899902-0.9947338-3.5100098-1.0142593-4.8399658-0.0194664c-0.75,0.5266247-1.6600342,0.7314529-2.5800171,0.5461502
		c-0.9400024-0.1853046-1.7800293-0.7705021-2.289978-1.5994568l-0.0700073-0.1072655
		c-0.8200073-1.3946266-2.7100229-2.1553669-4.500001-1.8042831c-1.8000488,0.351141-3.0300293,1.7555313-3.2900391,3.7548218
		c-0.2600098,2.0285168-0.0700073,5.461483,0.1300049,8.4555664c-1.3499756,0.1170292-2.47998,0.2340565-3.2899776,0.3316174
		c-0.8099976,0.0975037-1.3099976,0.1657791-1.3900146,0.1950073c-0.5200195,0.1658401-0.7999878,0.7217484-0.6300049,1.2288475
		c0.1699829,0.4778748,0.6699829,0.7509766,1.1699829,0.6437111c0.3800049-0.0585136,1.9800415-0.2535782,4.2700191-0.4584045
		c0.0499878,0.7899628,0.0900269,1.4726639,0.1000366,1.9992867c0.0099487,0.1853065,0.0099487,0.3608475,0.0099487,0.5461502
		c-0.0099487,0.8972893-0.1799927,1.7847595-0.3399658,2.5259743c-0.2700195,1.2288475,0.25,2.4771614,1.2700195,3.0330734
		c0.4799805,0.26334,2.1699829,0.9362793,3.8099976-1.5604095c0.8599854-1.3263512,1.2299805-2.4089432,1.5299683-3.2768898
		c0.2800303-0.8094902,0.4899912-1.423912,1.000001-2.0285759c0.1699829,0.6924629,0.1199951,1.3263512,0.0599976,2.1650696
		c-0.0800171,0.9752693-0.1699829,2.1748886,0.1199951,3.7938118c0.4400024,2.5259743,1.8599854,2.8965797,2.6400146,2.8965797
		c0.0800171,0,0.1599731-0.0097618,0.2199707-0.0097618c1.1800537-0.1072655,2.1600342-1.033783,2.3900146-2.2528687
		c0.1799927-0.9947968,0.4000244-1.7749977,0.6699829-2.4381752c0.0700073-0.1658363,0.1500244-0.3413811,0.2200317-0.5071602
		c0.25-0.5266228,0.5999756-1.2288475,1-2.0285759c0.4899902,0.7216911,0.9799805,1.4336777,1.4500122,2.106617
		c0.6900024,1.0044937,1.289978,1.8724976,1.6900024,2.496685c0.0999756,0.1560173,0.1900024,0.3120956,0.289978,0.4778748
		c0.4500122,0.780201,0.7700195,1.6677284,1,2.3406677C29.0298767,45.180748,30.099823,46,31.2498474,46h0.039978
		c0.5500488-0.0097618,2.3600464-0.26334,2.4800415-3.228138c0.0599976-1.5604668-0.1700439-2.6819916-0.3600464-3.5792809
		c-0.1799927-0.8387184-0.3099976-1.4726067-0.1900024-2.2528687c0.5,0.5169182,0.7900391,1.0922966,1.1700439,1.8432732
		c0.4400024,0.8777657,0.9799805,1.9603004,2.0599976,3.2183762c1.8599854,2.1748886,3.3900146,1.4726639,3.9599609,1.0728302
		c0.960022-0.6631737,1.3300171-1.9505386,0.9000244-3.1111107c-0.0499878-0.1365509-0.0900269-0.2535782-0.1400146-0.3803711
		c0.4000244-0.2048264,0.8300171-0.516861,1.2900391-0.9752693c1.1199951-1.121582,1.7199707-2.1065521,2.1999512-2.8965187
		c0.25-0.4096565,0.460022-0.7607384,0.7200317-1.0825958c0.1900024-0.2535782,0.4000244-0.4876328,0.6799927-0.7021637
		c0,0.2340546-0.0200195,0.4583473-0.0499878,0.6827011c-0.0700073,0.4583473-0.1900024,0.9167557-0.3500366,1.4531403
		c-0.2799683,0.9362221-0.6199951,2.0967941-0.6799927,3.7352982c-0.1099854,2.8282433,1.5,3.3158798,2.2000122,3.3939171
		c0.0900269,0.0097618,0.1799927,0.0097618,0.2700195,0.0097618c1.0800171,0,2.0899658-0.6827011,2.5299683-1.7360077
		c0.3900146-0.9362183,0.7700195-1.6482048,1.1799927-2.2528687c0.1000366-0.1462555,0.210022-0.30233,0.3200073-0.4486465
		c0.4400024-0.5851364,1.1000366-1.4043274,1.8600464-2.3503723c0.6499634-0.7997284,1.3399658-1.6579666,2.0199585-2.5259705
		c1.9299927-0.292572,3.4000244-0.6241302,4.1000366-0.9849739C59.9498596,32.6583252,60.1398621,32.0731277,59.8898621,31.5952549z
		 M22.7298279,35.076973c-0.5599976,1.0922966-1.0499878,2.0480423-1.3599854,2.7307434
		c-0.0899658,0.1950645-0.1699829,0.3901291-0.2600098,0.5851974c-0.3200073,0.7899628-0.5700073,1.6871948-0.7799683,2.8087196
		c-0.0700073,0.3511429-0.3200073,0.6339493-0.6000366,0.6534729c-0.3999634,0.0585136-0.6399536-0.8680038-0.7099609-1.2678375
		c-0.2399902-1.375164-0.1700439-2.3601952-0.1000366-3.3159409c0.0800171-1.0435448,0.1500244-2.0285759-0.2399902-3.2086143
		c-0.1900024-0.5949593-0.7000122-1.033783-1.3399658-1.1800957c-0.1400146-0.0292854-0.2700195-0.03899-0.4100342-0.03899
		c-0.5,0-0.9799814,0.1950073-1.3200083,0.555851c-0.9500122,0.9947929-1.2799683,1.9505386-1.6300049,2.9648552
		c-0.289978,0.8484802-0.5999756,1.7262459-1.3299561,2.8477707c-0.3400269,0.5266228-0.8500366,1.0728302-1.1400146,0.9167557
		c-0.2399902-0.1365509-0.3800049-0.555912-0.2900391-0.9362793c0.1700439-0.7802048,0.3600464-1.8237495,0.3800049-2.8965225
		c0-0.2145882,0-0.4291191-0.0099487-0.6339493c-0.0200195-0.7509155-0.0900269-1.8335075-0.1700439-3.0622978
		c-0.2000122-2.9453335-0.4599609-6.9731998-0.2000122-9.0407658c0.1900024-1.4726658,1.0300293-1.9407749,1.7000122-2.0773277
		c0.9200439-0.1755409,1.9800415,0.2048283,2.3699951,0.8680038l0.0800171,0.1365528
		c0.5700073,0.9166946,1.3900156,1.6384449,2.3499765,2.0870304c-1.1099854,0.3218555-2.3899546,0.5266838-3.7799692,0.4778728
		c-0.5599976-0.0097027-1.0100098,0.3998928-1.0300293,0.9460411c-0.0199585,0.5363865,0.4100342,0.9850311,0.960022,1.0044956
		c0.1600342,0.0097637,0.3200073,0.0097637,0.4799805,0.0097637c5.04004,0,8.6700449-2.8087807,8.830018-2.9355698
		c0.0100098-0.0097027,0.0200195-0.0194664,0.0300293-0.0194664c0.6099854-0.4584064,1.6900024-0.4096546,2.4699707,0.1072655
		c0.4000244,0.2633419,0.6699829,0.6241875,0.8099976,1.0533085c-0.0100098-0.0097618-0.0299683-0.0097618-0.039978-0.0195255
		l-0.1199951-0.0585136c-1.4200439-0.7997265-3.4500122-0.5266228-4.8099976,0.6534138
		c-1.3699951,1.1996212-1.710022,3.0136089-0.9000244,4.8665848c0.4799805,1.0923557,1.3400269,2.5259724,2.3099976,4.0181637
		C22.8598328,34.8038673,22.7898254,34.9501839,22.7298279,35.076973z M39.2498474,41.4942627
		c-0.3499756,0.2438164-1.0100098-0.4388847-1.2700195-0.7509766c-0.9199829-1.072773-1.3699951-1.9603004-1.7999878-2.8087807
		c-0.4699707-0.9459839-0.9099731-1.8335114-1.8599854-2.662468c-0.4799805-0.4193573-1.1400146-0.5461464-1.7700195-0.3510818
		c-0.6199951,0.1950073-1.0899658,0.6924019-1.2299805,1.2970657c-0.2999878,1.3263512-0.0900269,2.3113823,0.1300049,3.3646889
		c0.1799927,0.8777695,0.3699951,1.7847595,0.3200073,3.1111145c-0.0300293,0.6241837-0.1799927,1.3556366-0.5100098,1.3556366
		c-0.0100098,0-0.0100098,0-0.0100098,0c-0.2800293,0-0.5999756-0.2925682-0.7299805-0.6534729
		c-0.2600098-0.770443-0.6199951-1.7652359-1.1600342-2.6916924c-0.1099854-0.1853027-0.2199707-0.3706093-0.3399658-0.555912
		c-0.4000244-0.6339493-1.0200195-1.5311775-1.7200317-2.5454369c-1.6900024-2.447937-4-5.8028641-4.8399658-7.7144127
		c-0.6000366-1.3751049-0.1199951-2.1943569,0.3899536-2.6332397c0.460022-0.3998337,1.1000366-0.6144238,1.6700439-0.6144238
		c0.2999878,0,0.5899658,0.0585136,0.8200073,0.1853027l0.1499634,0.087801
		c0.960022,0.5071583,2.0400391,0.7216892,3.1000366,0.643652c-0.8000488,0.819252-1.7900391,1.6384449-3.0100098,2.2723942
		c-0.4899902,0.26334-0.6700439,0.8484783-0.4100342,1.3263512c0.1799927,0.3218555,0.5300293,0.5071583,0.8800049,0.5071583
		c0.1600342,0,0.3200073-0.0292854,0.4700317-0.1072655c4.6699829-2.4479351,6.4599609-6.9342079,6.5299683-7.1194534v-0.0097618
		c0.0100098-0.0097618,0.0100098-0.0195236,0.0200195-0.0292854c0.289978-0.6924038,1.25-1.1800385,2.1900024-1.1215248
		c1.0100098,0.0779781,1.75,0.7606792,2.0599976,1.9407768c0.5299683,2.0188141,0.8099976,6.0173931,1.0100098,8.9334393
		c0.0199585,0.1950645,0.0299683,0.3706055,0.039978,0.555912c-0.1799927,0.5169182-0.3699951,1.0142555-0.5700073,1.4531403
		c-0.5199585,1.1410484-0.2699585,2.4674606,0.6000366,3.2183762c0.1399536,0.1170273,0.3899536,0.2926292,0.7399902,0.4194183
		c0.0899658,0.2632828,0.1799927,0.5363846,0.289978,0.8289566C39.5498352,40.9675789,39.4798279,41.3284225,39.2498474,41.4942627z
		 M51.7698669,35.2135239c-0.7800293,0.9557457-1.460022,1.8042259-1.9100342,2.3991241
		c-0.1199951,0.1755409-0.25,0.3511429-0.3699951,0.5266838c-0.4799805,0.7021675-0.9199829,1.5311813-1.3599854,2.5844269
		c-0.1400146,0.3413811-0.4500122,0.555912-0.7299805,0.5266838c-0.4300537-0.0488091-0.4400024-0.9850311-0.4200439-1.384922
		c0.0500488-1.3946304,0.3300171-2.3503761,0.6000366-3.267128c0.2999878-1.0045586,0.5799561-1.9505386,0.4400024-3.1891518
		c-0.0599976-0.6241264-0.460022-1.1508102-1.0700073-1.414093c-0.2399902-0.1170864-0.5100098-0.1658382-0.7700195-0.1658382
		c-0.3599854,0-0.7199707,0.1072655-1.0299683,0.3120937c-1.1400146,0.7899666-1.6600342,1.6579704-2.2200317,2.5844879
		c-0.460022,0.7704391-0.9500122,1.5701675-1.8999634,2.5161514c-0.4400024,0.4486465-1.0500488,0.8875275-1.3100586,0.6729393
		c-0.2099609-0.1853065-0.25-0.6144257-0.0899658-0.9752693c0.3300171-0.7314529,0.75-1.7164268,0.9899902-2.7599716
		c0.0499878-0.2048264,0.0900269-0.4193573,0.1300049-0.6241837c0.1300049-0.7412148,0.289978-1.8042259,0.4699707-3.0233116
		c0.4300537-2.925808,1.0200195-6.924448,1.710022-8.8945103c0.5-1.4043903,1.4500122-1.6676731,2.1000366-1.6871967
		c0.9399414,0,1.8999634,0.5949001,2.1399536,1.3166485l0.0499878,0.1560173
		c0.3600464,1.0142593,1.0300293,1.8724995,1.8800049,2.5064487c-1.1599731,0.0975037-2.4599609,0.0487518-3.8199463-0.2828655
		c-0.5400391-0.1364937-1.0800171,0.1853027-1.210022,0.7119865c-0.1300049,0.5266247,0.1900024,1.0533066,0.7299805,1.1800385
		c1.1500244,0.2828655,2.2600098,0.390131,3.2900391,0.390131c3.5999756,0,6.289978-1.3165894,6.4400024-1.3848667
		c0-0.0097618,0-0.0097618,0-0.0097618c0.0099487,0,0.0199585-0.0097618,0.0299683-0.0097618
		c0.6900024-0.3218555,1.7399902-0.0585136,2.3900146,0.6046619c0.7099609,0.7119274,0.7799683,1.7067204,0.2000122,2.7892551
		C56.1598206,29.7617435,53.6198425,32.9118462,51.7698669,35.2135239z"/></svg>