<svg xmlns="http://www.w3.org/2000/svg" enable-background="new 0 0 32 32" viewBox="0 0 32 32"><path fill="#4E5C80" d="M27,2H5C3.3,2,2,3.3,2,5v16c0,1.6,1.3,3,3,3h22c1.7,0,3-1.4,3-3V5C30,3.3,28.7,2,27,2z M28,21
	c0,0.5-0.5,1-1,1H5c-0.5,0-1-0.5-1-1V5c0-0.5,0.5-1,1-1h22c0.5,0,1,0.5,1,1V21z"/><path fill="#D3E8ED" d="M28,5v16c0,0.5-0.5,1-1,1H5c-0.5,0-1-0.5-1-1V5c0-0.5,0.5-1,1-1h22C27.5,4,28,4.5,28,5z"/><path fill="#4E5C80" d="M25,28h-4.4l-2.7-5.4C17.7,22.2,17.4,22,17,22h-2c-0.4,0-0.7,0.2-0.9,0.6L11.4,28H7c-0.6,0-1,0.4-1,1
	s0.4,1,1,1h5h8c0,0,0,0,0,0h5c0.6,0,1-0.4,1-1S25.6,28,25,28z"/><path fill="#FFF" d="M22,9.8C21.8,8.2,20.4,7,18.8,7c-0.4,0-0.9,0.1-1.3,0.3l-1,0.4c-0.3,0.1-0.4,0.1-0.7,0.1
	c-0.1,0-0.2,0-0.3-0.1l-1-0.4C14.1,7.1,13.7,7,13.2,7c-1.7,0-3,1.2-3.2,2.8c0,0.1,0,0.2,0,0.4c0,1.5,0.3,3.1,1,4.5
	c0.2,0.4,0.4,0.8,0.7,1.3l1.6,2.6c0.2,0.3,0.6,0.5,0.9,0.5c0.4,0,0.7-0.3,0.8-0.6l0.7-1.8c0.1-0.2,0.2-0.2,0.3-0.2s0.2,0,0.3,0.2
	l0.7,1.8c0.1,0.4,0.5,0.6,0.8,0.6c0,0,0.1,0,0.1,0c0.3,0,0.7-0.2,0.9-0.5l1.6-2.6c1.1-1.7,1.6-3.8,1.6-5.8C22,10,22,9.9,22,9.8z"/></svg>