<svg xmlns="http://www.w3.org/2000/svg" data-name="Layer 6" viewBox="0 0 48 48"><path fill="#767c81" d="M29.95,2.12V6.27H18.05V2.12A1.366,1.366,0,0,1,19.42.75h9.16A1.366,1.366,0,0,1,29.95,2.12Z"/><path fill="#b9c5ce" d="M29.95,2.12V5.93H20.786a1.3,1.3,0,0,1-1.3-1.3V1.78a1.364,1.364,0,0,1,.48-1.03H28.58A1.37,1.37,0,0,1,29.95,2.12Z"/><path fill="#dff8ff" d="M11.888,30.939c-2.267-3.953-1.511-8.4,2.277-9.877s7.1.986,9.835.986,6.056-2.474,9.835-.986,4.544,5.924,2.277,9.877A20.286,20.286,0,0,0,35.1,32.964l0,0H46.116L29.951,6.273h-11.9L1.884,32.968H12.907l0,0A20.286,20.286,0,0,0,11.888,30.939Z"/><path fill="#98a0a0" d="M24.159,4.482h-.318a.75.75,0,0,1,0-1.5h.318a.75.75,0,0,1,0,1.5Z"/><path fill="#7eb1c0" d="M37.384,26.516c0,.175-.007.35-.022.525s-.029.372-.058.554c-.022.146-.044.285-.073.431s-.066.321-.1.474a.649.649,0,0,0-.022.073c-.044.168-.095.335-.153.51-.044.139-.095.278-.146.423-.022.059-.044.124-.073.19-.059.146-.124.292-.19.438-.08.175-.16.343-.255.518-.051.109-.11.226-.175.335-.153.27-.3.54-.431.8-.043.08-.087.153-.124.226-.175.35-.335.693-.466,1.022a6.622,6.622,0,0,0-.263.641q-.12.307-.219.613c-.131.379-.241.751-.328,1.109-.051.2-.1.408-.139.613-.043.182-.073.357-.1.525s-.058.343-.08.518-.044.321-.058.474a21.682,21.682,0,0,0-.095,2.363c.007,3.18-.554,5.463-1.809,6.616h-.007a3.29,3.29,0,0,1-2.334.86c-3.268,0-3.472-3.946-3.786-8.271a4.318,4.318,0,0,0-.693-2.254,1.24,1.24,0,0,0-.321-.321,1.425,1.425,0,0,0-2.035.321.539.539,0,0,0-.044.066c0,.007,0,.007-.007.014a4,4,0,0,0-.606,1.736.191.191,0,0,1-.007.059v.014c-.014.117-.029.241-.036.365-.226,3.1-.394,6.01-1.671,7.4a2.7,2.7,0,0,1-2.108.868c-2.917,0-4.172-2.735-4.157-7.476a16.19,16.19,0,0,0-2.3-8.9,7.8,7.8,0,0,1-.4-.788,8.547,8.547,0,0,1-.438-1.094c-1.116-3.413-.08-6.8,3.115-8.045a6.506,6.506,0,0,1,1.407-.379c3.2-.518,6.047,1.371,8.432,1.371a4.414,4.414,0,0,0,.533-.029c.095-.008.182-.022.277-.037,1.284-.182,2.691-.758,4.209-1.108.167-.037.335-.073.5-.1.087-.021.175-.036.27-.051a4.255,4.255,0,0,1,.445-.065c.036-.008.065-.008.1-.015.124-.014.255-.029.386-.036a6.969,6.969,0,0,1,3.115.452A5.55,5.55,0,0,1,37.384,26.516Z"/><path fill="#aee0f1" d="M36.115,30.987a16.128,16.128,0,0,0-2.3,8.9c.007,3.18-.554,5.463-1.809,6.616h-.007a2.709,2.709,0,0,1-2.473-1.372c-.941-1.517-1.094-4.128-1.3-6.9a3.636,3.636,0,0,0-.686-2.108,2.756,2.756,0,0,0-3.815-.6.626.626,0,0,1-.066.037,3.192,3.192,0,0,0-1.145,1.56,6.306,6.306,0,0,0-.291,1.1c-.022.131-.037.27-.052.43a.191.191,0,0,1-.007.059c-.014.116-.029.248-.036.379-.226,3.1-.394,6.01-1.671,7.4a3.227,3.227,0,0,1-2.633-1.466l-.007-.007c-.883-1.269-1.284-3.3-1.269-5.988A16.244,16.244,0,0,0,14.276,30.2a.327.327,0,0,0-.036-.065,9.718,9.718,0,0,1-.518-1.029,7.593,7.593,0,0,1-.277-5.959l.007-.007a4.8,4.8,0,0,1,.438-.832,4.978,4.978,0,0,1,1.677-1.626c3.2-.518,6.047,1.371,8.432,1.371,2.736,0,6.062-2.473,9.84-.992S38.376,27.012,36.115,30.987Z"/><path fill="#a6d6e5" d="M23.659,35.561a3.192,3.192,0,0,0-1.145,1.562,5.685,5.685,0,0,0-.295,1.1c.007.007.014.022.021.029-.028.129-.05.259-.072.4a.209.209,0,0,1-.007.065c-.014.115-.029.244-.036.374-.223,3.1-.4,6.012-1.67,7.409a3.266,3.266,0,0,1-2.636-1.469c.98.713,1.246-.072,1.311-.489.166-1.145.277-2.207.493-3.51a7.941,7.941,0,0,1,1.436-3.287A8.214,8.214,0,0,1,23.659,35.561Z"/><path fill="#a5e5fa" d="M36.946,29.105a9.453,9.453,0,0,1-.43,1.094c-.073.154-.146.307-.226.46-.051.109-.11.219-.175.328-.1.175-.2.35-.285.518-.065.117-.124.233-.182.35l-.088.153a15.976,15.976,0,0,0-1.75,7.878c.007,3.18-.554,5.463-1.809,6.616h-.007a2.709,2.709,0,0,1-2.473-1.372.954.954,0,0,0,1.415-.423,8.245,8.245,0,0,0,.226-3.107,16.219,16.219,0,0,1,2.3-8.906,10.026,10.026,0,0,0,.671-1.43,9.465,9.465,0,0,0,.35-1.065c.029-.124.051-.24.08-.364.052-.241.088-.489.117-.73A5.689,5.689,0,0,0,31.2,22.774a6.854,6.854,0,0,0-2.451-.474,8.692,8.692,0,0,0-1.452.124c-2.2.343-4.194,1.364-5.944,1.335-2.225-.037-3.363-1.138-6.018-1.357a2.356,2.356,0,0,0-1.882.737A5.334,5.334,0,0,1,13.97,22a2.594,2.594,0,0,1,1.6-1.32c3.2-.518,6.047,1.371,8.432,1.371a11.152,11.152,0,0,0,3.122-.649c.452-.132.919-.277,1.4-.4a8.249,8.249,0,0,1,5.317.058C37.034,22.307,38.07,25.692,36.946,29.105Z"/><path fill="#fff" d="M33.832,21.064c-3.779-1.488-7.1.985-9.835.985s-6.055-2.473-9.834-.985-4.545,5.924-2.277,9.876A20.286,20.286,0,0,1,12.9,32.965H35.092a20.286,20.286,0,0,1,1.017-2.025C38.377,26.988,37.621,22.542,33.832,21.064Z" opacity=".4"/></svg>