<svg xmlns="http://www.w3.org/2000/svg" viewBox="0 0 64 64" id="tooth-braces">
  <path fill="#a1d8df" d="M53.58 31.52a21 21 0 0 0-4.23 9.22c-.82 4-1.83 8.89-2.53 12.28a5 5 0 0 1-9.75.17l-2.16-8.82a3 3 0 0 0-5.82 0l-2.16 8.82a5 5 0 0 1-9.75-.19c-.7-3.39-1.71-8.32-2.53-12.28-.05-.25-.11-.5-.17-.74a20.67 20.67 0 0 0-4.06-8.48A14.91 14.91 0 0 1 7 22c0-.44 0-.89.06-1.34a15.08 15.08 0 0 1 13.59-13.6C21.1 7 21.55 7 22 7a15 15 0 0 1 4.87.81 15.62 15.62 0 0 0 10.28 0A15 15 0 0 1 42 7c.44 0 .89 0 1.34.06a15.1 15.1 0 0 1 12.4 9 14.64 14.64 0 0 1 1.19 4.61 14.94 14.94 0 0 1-3.35 10.85Z"></path>
  <path fill="#d1e6e9" d="M55.75 16a33 33 0 0 1-8.41 14.3A32.91 32.91 0 0 1 24 40h-.29a14.42 14.42 0 0 1-12-6.78 17.17 17.17 0 0 0-1.24-1.7A14.91 14.91 0 0 1 7 22c0-.44 0-.89.06-1.34a15.08 15.08 0 0 1 13.59-13.6C21.1 7 21.55 7 22 7a15 15 0 0 1 4.87.81 15.62 15.62 0 0 0 10.28 0A15 15 0 0 1 42 7c.44 0 .89 0 1.34.06A15.1 15.1 0 0 1 55.75 16Z"></path>
  <path fill="#68c7d3" d="M32 16a24.28 24.28 0 0 1-11.52-3.15 1 1 0 1 1 1-1.7A22.8 22.8 0 0 0 32 14a22.69 22.69 0 0 0 10.48-2.85 1 1 0 1 1 1 1.7A24.28 24.28 0 0 1 32 16Z"></path>
  <path fill="#30acc2" d="M59 27H41a1 1 0 0 1 0-2h18a1 1 0 0 1 0 2zm-36 0H5a1 1 0 0 1 0-2h18a1 1 0 0 1 0 2z"></path>
  <rect width="18" height="12" x="23" y="20" fill="#68c7d3" rx="3" ry="3"></rect>
  <path fill="#30acc2" d="M37 27H27a1 1 0 0 1 0-2h10a1 1 0 0 1 0 2Z"></path>
  <path fill="#30acc2" d="M29 29a1 1 0 0 1-1-1v-4a1 1 0 0 1 2 0v4a1 1 0 0 1-1 1zm6 0a1 1 0 0 1-1-1v-4a1 1 0 0 1 2 0v4a1 1 0 0 1-1 1z"></path>
</svg>
