<svg id="Layer_1" data-name="Layer 1" xmlns="http://www.w3.org/2000/svg" viewBox="0 0 1278.49 1323.19"><defs><style>.cls-1{fill:#b3c19d;}</style></defs><path class="cls-1" d="M826.31,637.8c.16-166.19-197.33-129.72-306.5-129.72-28.63,0-28.68,44.51,0,44.51,78.5,0,261.54-38,262,85.21.27,71.21-49.42,79.1-95.67,78.54-55.42-.69-110.9.14-166.33.21a22.58,22.58,0,0,0-22.25,22.25V947.47c0,.06,0,.12,0,.18-7.51,2.51-72.74-76-79-85.43a974.51,974.51,0,0,1-60.67-105.51c-16.92-34.22-29.66-70.33-39.13-107.32-21.66-84.66-27.11-187.78,54-243.21,57.49-39.31,137.71-42.17,199.75-10.6,25.46,13,48-25.42,22.46-38.42C512.31,315.1,408.56,321.06,335.36,379c-90.19,71.38-84.42,193.16-56.3,294.14,21.14,75.88,57.71,146,101.09,211.54,22.2,33.5,127.34,175.12,161.12,74.41,1.39-4.13.76-7.21.84-9.28,0-.17,0-2.19,0-2.35V761l79.91-.11c20.15,0,40.3-.09,60.45-.08,15.19,0,14.31.23,20,.22C778.22,761,826.24,717,826.31,637.8"/><path class="cls-1" d="M935.61,376.87c-74.61-57-179.65-63.22-263-20.72-25.52,13-3,51.43,22.46,38.43,61.16-31.19,141-29.36,199,7.22,96.24,60.73,90.81,172.07,56.91,267.28-12.72,35.72-29.84,69.09-49.11,101.61C880.26,807.28,856.78,843,830.58,876.5,814.36,897.25,762,970,758.43,932.9c0-22.56-1.08-49.82-1.08-72.38,0-28.64-44.51-28.69-44.51,0v46.61c-.06,6.18.18,8,.18,10.46-.16,34.22,9.08,76,52.7,74,42.41-2,78.28-60.07,101.71-90.3,48.05-62,91.91-130.73,120.46-204.23,42.78-110.11,50.88-241.35-52.28-320.19"/></svg>