<svg id="Layer_1" data-name="Layer 1" xmlns="http://www.w3.org/2000/svg" viewBox="0 0 1278.49 716.35"><defs><style>.cls-1{fill:#303030;}.cls-2{fill:#b3c19d;}</style></defs><path class="cls-1" d="M132.58,481.41a16.4,16.4,0,0,0,8.17-1.94,17.45,17.45,0,0,0,5.71-5.13,22.76,22.76,0,0,0,3.38-7.3,32,32,0,0,0,1.11-8.37,32.43,32.43,0,0,0-1.11-8.47,23.92,23.92,0,0,0-3.33-7.35,16.57,16.57,0,0,0-5.76-5.17,17,17,0,0,0-8.27-1.94,17.43,17.43,0,0,0-8.42,1.89,16.86,16.86,0,0,0-5.76,5.08,21.31,21.31,0,0,0-3.29,7.35,36.5,36.5,0,0,0-1,8.61,32.3,32.3,0,0,0,1.11,8.46,22.52,22.52,0,0,0,3.39,7.31,16.78,16.78,0,0,0,5.76,5.08,17.3,17.3,0,0,0,8.32,1.89m18.47-8.62h-.19a22.58,22.58,0,0,1-7.74,8.85,23.16,23.16,0,0,1-21,.83,19.08,19.08,0,0,1-6.68-5.71,24.72,24.72,0,0,1-3.87-8.27,39.33,39.33,0,0,1,.1-20.13,23.43,23.43,0,0,1,4.11-8.27,19.65,19.65,0,0,1,6.92-5.51,22.08,22.08,0,0,1,9.77-2,21.49,21.49,0,0,1,5.9.82,20.9,20.9,0,0,1,5.37,2.37,16.84,16.84,0,0,1,4.3,3.87,17.09,17.09,0,0,1,2.81,5.22h.19V414.36h3.68v69.08h-3.68Z"/><path class="cls-1" d="M170.11,444.74h.29a12,12,0,0,1,2.47-4.55,17.61,17.61,0,0,1,4.35-3.68,21.91,21.91,0,0,1,5.71-2.36,23.14,23.14,0,0,1,6.53-.73v3.68a17.26,17.26,0,0,0-6.63.58,16.07,16.07,0,0,0-7.11,4.25,36.57,36.57,0,0,0-2.37,2.81,13.69,13.69,0,0,0-1.69,3,19.22,19.22,0,0,0-1.07,3.68,31.22,31.22,0,0,0-.48,4.83v27.19h-3.68V433.71h3.68Z"/><rect class="cls-1" x="194.2" y="473.47" width="4.93" height="9.97"/><path class="cls-1" d="M215.67,433.71h3.68v10.16h.2a13,13,0,0,1,2-4.4,15.39,15.39,0,0,1,3.53-3.63,16.74,16.74,0,0,1,10-3.29,18.73,18.73,0,0,1,6.19.92,14.56,14.56,0,0,1,4.45,2.42,11.82,11.82,0,0,1,2.9,3.38,12.76,12.76,0,0,1,1.45,3.83h.2a18.09,18.09,0,0,1,5.95-7.89c2.48-1.78,5.76-2.66,9.81-2.66a18.5,18.5,0,0,1,6.25,1,13.12,13.12,0,0,1,4.93,3.1,14.16,14.16,0,0,1,3.24,5.27,22,22,0,0,1,1.16,7.55v34H278V449.38a15.89,15.89,0,0,0-1.46-7.45,11.57,11.57,0,0,0-3.43-4.11,9.81,9.81,0,0,0-4-1.74,19,19,0,0,0-3.05-.34,16.45,16.45,0,0,0-6.23,1.16,13.3,13.3,0,0,0-4.94,3.49,16.44,16.44,0,0,0-3.24,5.75A24.72,24.72,0,0,0,250.5,454v29.41h-3.68V449.38a16.4,16.4,0,0,0-1.4-7.4,11,11,0,0,0-3.29-4.11,9.9,9.9,0,0,0-3.87-1.74,17.25,17.25,0,0,0-3.14-.39,15.26,15.26,0,0,0-5.42,1.07,14.92,14.92,0,0,0-5.12,3.28,16.75,16.75,0,0,0-3.78,5.71,21.31,21.31,0,0,0-1.45,8.23v29.41h-3.68Z"/><path class="cls-1" d="M330.51,455.86a29.63,29.63,0,0,0-1.36-7.69,19.3,19.3,0,0,0-3.44-6.39,17.35,17.35,0,0,0-5.53-4.4,16.3,16.3,0,0,0-7.42-1.64,17.49,17.49,0,0,0-7.86,1.69,17.89,17.89,0,0,0-5.72,4.45,19.74,19.74,0,0,0-3.59,6.44,30,30,0,0,0-1.55,7.54Zm-36.57,3.19v.59A29.65,29.65,0,0,0,295.1,468a21.4,21.4,0,0,0,3.45,7,16.38,16.38,0,0,0,5.72,4.74,17.49,17.49,0,0,0,8,1.74q7.47,0,11.84-3.92a20.46,20.46,0,0,0,6-10.88h3.68q-1.65,8.72-7.11,13.35t-14.47,4.64a22,22,0,0,1-9.62-2,19.51,19.51,0,0,1-6.87-5.42,23,23,0,0,1-4.11-8.12A36.07,36.07,0,0,1,290.26,459a35.55,35.55,0,0,1,1.4-10,25.23,25.23,0,0,1,4.21-8.42,20.92,20.92,0,0,1,7-5.81,23.41,23.41,0,0,1,19.15-.24,19.43,19.43,0,0,1,6.73,5.27,23.73,23.73,0,0,1,4.11,7.74,31.1,31.1,0,0,1,1.4,9.44c0,.32,0,.69,0,1.11s0,.76,0,1Z"/><path class="cls-1" d="M362.72,481.41a16.44,16.44,0,0,0,8.18-1.94,17.52,17.52,0,0,0,5.7-5.13A22.77,22.77,0,0,0,380,467a32,32,0,0,0,1.11-8.37A32.43,32.43,0,0,0,380,450.2a24.18,24.18,0,0,0-3.34-7.35,16.45,16.45,0,0,0-5.75-5.17,17,17,0,0,0-8.28-1.94,17.39,17.39,0,0,0-8.41,1.89,16.86,16.86,0,0,0-5.76,5.08,21.12,21.12,0,0,0-3.29,7.35,36.5,36.5,0,0,0-1,8.61,32.3,32.3,0,0,0,1.11,8.46,22.52,22.52,0,0,0,3.39,7.31,16.84,16.84,0,0,0,5.75,5.08,17.3,17.3,0,0,0,8.32,1.89m18.48-8.62H381a22.48,22.48,0,0,1-7.73,8.85,23.18,23.18,0,0,1-21,.83,19.13,19.13,0,0,1-6.67-5.71,24.72,24.72,0,0,1-3.87-8.27,39.33,39.33,0,0,1,.1-20.13,23.58,23.58,0,0,1,4.1-8.27,19.74,19.74,0,0,1,6.92-5.51,22.08,22.08,0,0,1,9.77-2,21.56,21.56,0,0,1,5.91.82,20.9,20.9,0,0,1,5.37,2.37,17,17,0,0,1,7.1,9.09h.2V414.36h3.68v69.08H381.2Z"/><rect class="cls-1" x="402.09" y="473.47" width="4.93" height="9.97"/><path class="cls-1" d="M443.4,481.41a16.35,16.35,0,0,0,8.17-1.94,17.25,17.25,0,0,0,5.71-5.13,22.56,22.56,0,0,0,3.39-7.3,32,32,0,0,0,1.11-8.37,32.43,32.43,0,0,0-1.11-8.47,23.92,23.92,0,0,0-3.33-7.35,16.52,16.52,0,0,0-5.77-5.17,16.89,16.89,0,0,0-8.26-1.94,17.43,17.43,0,0,0-8.42,1.89,16.86,16.86,0,0,0-5.76,5.08,21.31,21.31,0,0,0-3.29,7.35,36.5,36.5,0,0,0-1,8.61,32.3,32.3,0,0,0,1.11,8.46,22.52,22.52,0,0,0,3.39,7.31,16.84,16.84,0,0,0,5.75,5.08,17.36,17.36,0,0,0,8.32,1.89m18.48-8.62h-.19a22.58,22.58,0,0,1-7.74,8.85,23.16,23.16,0,0,1-21,.83,19.08,19.08,0,0,1-6.68-5.71,24.72,24.72,0,0,1-3.87-8.27,39.33,39.33,0,0,1,.1-20.13,23.43,23.43,0,0,1,4.11-8.27,19.65,19.65,0,0,1,6.92-5.51,22.08,22.08,0,0,1,9.77-2,21.54,21.54,0,0,1,5.9.82,20.9,20.9,0,0,1,5.37,2.37,17.1,17.1,0,0,1,7.11,9.09h.19V414.36h3.68v69.08h-3.68Z"/><path class="cls-1" d="M515.19,455.86a30.06,30.06,0,0,0-1.36-7.69,19.3,19.3,0,0,0-3.44-6.39,17.46,17.46,0,0,0-5.53-4.4,16.31,16.31,0,0,0-7.43-1.64,17.47,17.47,0,0,0-7.85,1.69,17.68,17.68,0,0,0-5.72,4.45,19.74,19.74,0,0,0-3.59,6.44,30,30,0,0,0-1.56,7.54Zm-36.57,3.19v.59a29.65,29.65,0,0,0,1.16,8.32,21.38,21.38,0,0,0,3.44,7,16.41,16.41,0,0,0,5.73,4.74,17.49,17.49,0,0,0,8,1.74q7.47,0,11.84-3.92a20.46,20.46,0,0,0,6-10.88h3.67q-1.63,8.72-7.11,13.35t-14.46,4.64a21.89,21.89,0,0,1-9.62-2,19.63,19.63,0,0,1-6.88-5.42,23.11,23.11,0,0,1-4.1-8.12A36.07,36.07,0,0,1,474.94,459a35.2,35.2,0,0,1,1.41-10,25,25,0,0,1,4.2-8.42,20.92,20.92,0,0,1,7-5.81,23.41,23.41,0,0,1,19.15-.24,19.43,19.43,0,0,1,6.73,5.27,23.52,23.52,0,0,1,4.1,7.74,30.79,30.79,0,0,1,1.41,9.44c0,.32,0,.69-.05,1.11s0,.76,0,1Z"/><path class="cls-1" d="M527.47,433.71h3.68v10.64h.19a15.71,15.71,0,0,1,2.76-5,18.27,18.27,0,0,1,9.33-6.05,21.59,21.59,0,0,1,5.71-.77,22.84,22.84,0,0,1,7.4,1.06,14.52,14.52,0,0,1,5,2.81,13.64,13.64,0,0,1,3.05,3.91,18.14,18.14,0,0,1,1.59,4.41,25.77,25.77,0,0,1,.59,4.3q.09,2.08.09,3.63v30.77h-3.67V452c0-1.22-.1-2.77-.29-4.64a14,14,0,0,0-1.7-5.37,12.19,12.19,0,0,0-4.25-4.4q-2.85-1.84-7.88-1.84a17.53,17.53,0,0,0-7.55,1.55,16.26,16.26,0,0,0-5.61,4.31,19,19,0,0,0-3.54,6.57,27.84,27.84,0,0,0-1.2,8.37v26.9h-3.68Z"/><path class="cls-1" d="M596,436.9H585.13v34.73a13.18,13.18,0,0,0,.68,4.74,5.38,5.38,0,0,0,2.08,2.66,7.29,7.29,0,0,0,3.38,1.12,35.44,35.44,0,0,0,4.6.09v3.2a36.88,36.88,0,0,1-5.47-.05,11,11,0,0,1-4.69-1.46,8.51,8.51,0,0,1-3.24-3.62,13.69,13.69,0,0,1-1-6.68V436.9h-9.19v-3.19h9.19V418.23h3.68v15.48H596Z"/><rect class="cls-1" x="608.25" y="473.47" width="4.93" height="9.97"/><path class="cls-1" d="M662.81,458.38a13.4,13.4,0,0,1-6.19,2q-3.68.34-7.35,1a23.94,23.94,0,0,0-3.39.82,10.23,10.23,0,0,0-2.9,1.45,6.37,6.37,0,0,0-2,2.42,8.19,8.19,0,0,0-.73,3.63,4.6,4.6,0,0,0,1.06,3.09,7.68,7.68,0,0,0,2.57,2,11.4,11.4,0,0,0,3.29,1,19.62,19.62,0,0,0,3.24.29,17.5,17.5,0,0,0,4-.48,13.26,13.26,0,0,0,4-1.64,10.82,10.82,0,0,0,3.14-3,7.44,7.44,0,0,0,1.26-4.4Zm11,13.93a5.91,5.91,0,0,0,.53,2.9,2.25,2.25,0,0,0,2.08.87h1.16a7.1,7.1,0,0,0,1.55-.19v7.64c-.39.13-.89.27-1.5.44s-1.24.3-1.89.43a18,18,0,0,1-1.93.29,15.05,15.05,0,0,1-1.65.09,10.54,10.54,0,0,1-5.6-1.35,6.71,6.71,0,0,1-2.91-4.73,19.59,19.59,0,0,1-8.07,4.64,31.78,31.78,0,0,1-9.24,1.44,22.42,22.42,0,0,1-6.49-.91,16.83,16.83,0,0,1-5.46-2.71,13,13,0,0,1-3.78-4.55,14.07,14.07,0,0,1-1.4-6.43,14.82,14.82,0,0,1,1.7-7.54,12.35,12.35,0,0,1,4.44-4.55,20.19,20.19,0,0,1,6.19-2.38c2.3-.47,4.6-.84,6.92-1.11q3-.57,5.71-.82A26.58,26.58,0,0,0,659,453a7.33,7.33,0,0,0,3.29-1.79,4.91,4.91,0,0,0,1.21-3.63,5.64,5.64,0,0,0-1-3.48A6.91,6.91,0,0,0,660,442a11.29,11.29,0,0,0-3.34-1,27,27,0,0,0-3.48-.24,13.81,13.81,0,0,0-7.64,1.94,7.53,7.53,0,0,0-3.39,6h-11a16.64,16.64,0,0,1,2.32-8,16.26,16.26,0,0,1,5.18-5.13,21.36,21.36,0,0,1,7.11-2.7,42,42,0,0,1,8.13-.78,34,34,0,0,1,7.25.78,20.9,20.9,0,0,1,6.44,2.51,14.1,14.1,0,0,1,4.59,4.5,12.36,12.36,0,0,1,1.74,6.73Z"/><path class="cls-1" d="M685.74,433.42h10.45v7.35l.19.2a18.57,18.57,0,0,1,6.58-6.54,17.64,17.64,0,0,1,9-2.37q8.22,0,13,4.26t4.74,12.77v34.34h-11V452q-.2-5.89-2.51-8.56t-7.26-2.66a11.93,11.93,0,0,0-5,1,11,11,0,0,0-3.77,2.8,13.14,13.14,0,0,0-2.42,4.21,15.06,15.06,0,0,0-.87,5.13v29.5h-11Z"/><path class="cls-1" d="M772.13,458.38a13.4,13.4,0,0,1-6.19,2c-2.45.23-4.91.57-7.36,1a23.8,23.8,0,0,0-3.38.82,10,10,0,0,0-2.9,1.45,6.49,6.49,0,0,0-2,2.42,8.33,8.33,0,0,0-.73,3.63,4.61,4.61,0,0,0,1.07,3.09,7.64,7.64,0,0,0,2.56,2,11.56,11.56,0,0,0,3.3,1,19.62,19.62,0,0,0,3.24.29,17.5,17.5,0,0,0,4-.48,13.26,13.26,0,0,0,4-1.64,10.82,10.82,0,0,0,3.14-3,7.44,7.44,0,0,0,1.26-4.4Zm11,13.93a5.91,5.91,0,0,0,.53,2.9,2.25,2.25,0,0,0,2.08.87h1.16a7.17,7.17,0,0,0,1.55-.19v7.64c-.39.13-.89.27-1.5.44s-1.24.3-1.89.43a18.35,18.35,0,0,1-1.93.29,15.31,15.31,0,0,1-1.65.09,10.51,10.51,0,0,1-5.6-1.35A6.71,6.71,0,0,1,773,478.7a19.56,19.56,0,0,1-8.08,4.64,31.73,31.73,0,0,1-9.24,1.44,22.4,22.4,0,0,1-6.48-.91,16.73,16.73,0,0,1-5.46-2.71,12.91,12.91,0,0,1-3.78-4.55,13.94,13.94,0,0,1-1.4-6.43,14.82,14.82,0,0,1,1.69-7.54,12.46,12.46,0,0,1,4.45-4.55,20.15,20.15,0,0,1,6.2-2.38c2.28-.47,4.59-.84,6.91-1.11q3-.57,5.71-.82a26.58,26.58,0,0,0,4.79-.82,7.39,7.39,0,0,0,3.29-1.79,5,5,0,0,0,1.21-3.63,5.64,5.64,0,0,0-1-3.48,7,7,0,0,0-2.51-2.08,11.38,11.38,0,0,0-3.34-1,27,27,0,0,0-3.48-.24,13.87,13.87,0,0,0-7.65,1.94,7.58,7.58,0,0,0-3.39,6h-11a16.53,16.53,0,0,1,2.32-8,16.23,16.23,0,0,1,5.17-5.13,21.53,21.53,0,0,1,7.11-2.7,42.12,42.12,0,0,1,8.13-.78,34.05,34.05,0,0,1,7.26.78,20.9,20.9,0,0,1,6.44,2.51,14.2,14.2,0,0,1,4.59,4.5,12.36,12.36,0,0,1,1.74,6.73Z"/><path class="cls-1" d="M860.74,458.47a24.49,24.49,0,0,0-.87-6.57,17.4,17.4,0,0,0-2.61-5.66,13.44,13.44,0,0,0-4.35-4,11.82,11.82,0,0,0-6-1.5q-7,0-10.5,4.84t-3.53,12.86a25.74,25.74,0,0,0,.92,7,16,16,0,0,0,2.76,5.56,13.64,13.64,0,0,0,4.4,3.68,12.58,12.58,0,0,0,5.95,1.35,12.25,12.25,0,0,0,6.39-1.55,13.31,13.31,0,0,0,4.3-4,16.19,16.19,0,0,0,2.42-5.61,28.77,28.77,0,0,0,.72-6.44m-38.5-25.05h10.45v6.77h.19a13.66,13.66,0,0,1,6.49-6.24,21.48,21.48,0,0,1,9-1.89,23.85,23.85,0,0,1,10.3,2.09,20.27,20.27,0,0,1,7.3,5.7,24.73,24.73,0,0,1,4.35,8.47,35.76,35.76,0,0,1,1.45,10.35,36.65,36.65,0,0,1-1.3,9.77,25.31,25.31,0,0,1-4,8.37,19.34,19.34,0,0,1-16.3,8,27.4,27.4,0,0,1-4.84-.44,20.56,20.56,0,0,1-4.64-1.4,17.89,17.89,0,0,1-4.11-2.47,13.22,13.22,0,0,1-3.14-3.53h-.2v25h-11Z"/><path class="cls-1" d="M915.4,454a17.9,17.9,0,0,0-1.11-5,13.31,13.31,0,0,0-2.51-4.21,12.64,12.64,0,0,0-3.87-2.91,11.45,11.45,0,0,0-5.09-1.11,13.13,13.13,0,0,0-5.26,1,12.07,12.07,0,0,0-4.07,2.8,13.91,13.91,0,0,0-2.71,4.21,14.55,14.55,0,0,0-1.11,5.23Zm-25.73,7.25a19.09,19.09,0,0,0,.83,5.61,13.54,13.54,0,0,0,2.46,4.74,12,12,0,0,0,4.16,3.25,13.81,13.81,0,0,0,6,1.2,13.27,13.27,0,0,0,7.79-2.08,12.34,12.34,0,0,0,4.4-6.24h10.45a20.73,20.73,0,0,1-8.13,12.63,22.23,22.23,0,0,1-6.72,3.28,26.83,26.83,0,0,1-7.79,1.12,26.46,26.46,0,0,1-10.45-1.94,21.46,21.46,0,0,1-7.69-5.42,22.77,22.77,0,0,1-4.74-8.31,33.64,33.64,0,0,1-1.6-10.64,30.16,30.16,0,0,1,1.7-10.12,25.65,25.65,0,0,1,4.83-8.41,22.8,22.8,0,0,1,17.65-7.89,22.49,22.49,0,0,1,10.6,2.47,23.34,23.34,0,0,1,7.79,6.53,26.58,26.58,0,0,1,4.5,9.34,28.73,28.73,0,0,1,.72,10.88Z"/><path class="cls-1" d="M929.82,433.42h8.32v-15h11v15h10v8.22h-10v26.7a25.7,25.7,0,0,0,.15,3,5,5,0,0,0,.68,2.13,3.14,3.14,0,0,0,1.59,1.3,7.67,7.67,0,0,0,2.91.44c.77,0,1.55,0,2.32,0a11.58,11.58,0,0,0,2.32-.33v8.51l-3.58.38a32.07,32.07,0,0,1-3.58.2,24.68,24.68,0,0,1-7-.82,9.39,9.39,0,0,1-4.16-2.42,8.38,8.38,0,0,1-2-4,30.46,30.46,0,0,1-.62-5.52V441.64h-8.32Z"/><path class="cls-1" d="M967.06,433.42h10.35v9.67h.2a11.2,11.2,0,0,1,1.88-4,17.91,17.91,0,0,1,3.39-3.53,16.93,16.93,0,0,1,4.4-2.57,13.24,13.24,0,0,1,4.93-1,24.8,24.8,0,0,1,2.66.1l1.5.2V443c-.77-.13-1.56-.25-2.37-.34a19.22,19.22,0,0,0-2.37-.15,12.68,12.68,0,0,0-5.27,1.11,12.23,12.23,0,0,0-4.31,3.3,16.1,16.1,0,0,0-2.9,5.37,23.19,23.19,0,0,0-1.06,7.35v23.79h-11Z"/><path class="cls-1" d="M1022.3,476.08a12.6,12.6,0,0,0,6.39-1.55,13.54,13.54,0,0,0,4.45-4.06,17.78,17.78,0,0,0,2.56-5.66,25.19,25.19,0,0,0,.82-6.43,25.46,25.46,0,0,0-.82-6.39,17.2,17.2,0,0,0-2.56-5.66,13.83,13.83,0,0,0-4.45-4,13.93,13.93,0,0,0-12.77,0,13.63,13.63,0,0,0-4.45,4,16.8,16.8,0,0,0-2.56,5.66,25.48,25.48,0,0,0-.83,6.39,25.2,25.2,0,0,0,.83,6.43,17.35,17.35,0,0,0,2.56,5.66,13.34,13.34,0,0,0,4.45,4.06,12.54,12.54,0,0,0,6.38,1.55m0,8.71a27.1,27.1,0,0,1-10.69-2,22.74,22.74,0,0,1-7.93-5.46,23.19,23.19,0,0,1-4.93-8.32,33.87,33.87,0,0,1,0-21.19,23.37,23.37,0,0,1,4.93-8.32,22.74,22.74,0,0,1,7.93-5.46,29.85,29.85,0,0,1,21.38,0,22.74,22.74,0,0,1,7.93,5.46,23.53,23.53,0,0,1,4.94,8.32,33.87,33.87,0,0,1,0,21.19,23.36,23.36,0,0,1-4.94,8.32,22.74,22.74,0,0,1-7.93,5.46,27.1,27.1,0,0,1-10.69,2"/><polygon class="cls-1" points="1051.81 433.42 1063.8 433.42 1076.48 471.82 1076.67 471.82 1088.86 433.42 1100.27 433.42 1082.38 483.43 1069.99 483.43 1051.81 433.42"/><path class="cls-1" d="M1107.24,433.42h11v50h-11Zm0-19.06h11v10.45h-11Z"/><path class="cls-1" d="M1156.48,412.62h13.06l-13.74,13.83h-8Zm7.55,37.53a10.34,10.34,0,0,0-3.72-7,12.13,12.13,0,0,0-7.7-2.38,15.66,15.66,0,0,0-4.55.73,10.72,10.72,0,0,0-4.45,2.71,15.19,15.19,0,0,0-3.38,5.51,26.11,26.11,0,0,0-1.35,9.24,26.69,26.69,0,0,0,.72,6.19,16.83,16.83,0,0,0,2.32,5.51,12.43,12.43,0,0,0,4.11,3.92,11.7,11.7,0,0,0,6.09,1.5,11.15,11.15,0,0,0,8-3,14,14,0,0,0,3.92-8.42h11q-1.56,9.76-7.4,14.95t-15.54,5.17a25.54,25.54,0,0,1-10.39-2,22.09,22.09,0,0,1-7.6-5.42,23.18,23.18,0,0,1-4.69-8.18,32,32,0,0,1-1.6-10.25,35.14,35.14,0,0,1,1.55-10.55,24.12,24.12,0,0,1,4.65-8.56,21.52,21.52,0,0,1,7.69-5.7,25.88,25.88,0,0,1,10.78-2.09,30.15,30.15,0,0,1,8.27,1.12,21.55,21.55,0,0,1,7,3.34,17.78,17.78,0,0,1,5,5.6,19.28,19.28,0,0,1,2.33,8Z"/><path class="cls-1" d="M212.16,547.29a4.92,4.92,0,0,0,1.63,1.94,6.68,6.68,0,0,0,2.46,1,14,14,0,0,0,3,.31,8.4,8.4,0,0,0,2-.26,7,7,0,0,0,2-.84,5.07,5.07,0,0,0,1.57-1.49,3.79,3.79,0,0,0,.62-2.19,3.27,3.27,0,0,0-.44-1.71,4.18,4.18,0,0,0-1.15-1.22,6.92,6.92,0,0,0-1.58-.81,13.44,13.44,0,0,0-1.68-.51l-5.24-1.29a15.46,15.46,0,0,1-2-.66,5.53,5.53,0,0,1-1.7-1.05,5,5,0,0,1-1.17-1.62,5.49,5.49,0,0,1-.45-2.34,7.47,7.47,0,0,1,.33-2,5.53,5.53,0,0,1,1.24-2.18,7.1,7.1,0,0,1,2.49-1.73,10,10,0,0,1,4.06-.71,12,12,0,0,1,3.32.46,8.11,8.11,0,0,1,2.77,1.39,6.65,6.65,0,0,1,2.61,5.47h-2.24a5.45,5.45,0,0,0-.61-2.36,5.39,5.39,0,0,0-1.42-1.68,6.15,6.15,0,0,0-2-1,8.22,8.22,0,0,0-2.39-.34,9.65,9.65,0,0,0-2.23.24,5.6,5.6,0,0,0-1.88.8,4,4,0,0,0-1.3,1.43,4.47,4.47,0,0,0-.49,2.2,3.33,3.33,0,0,0,.28,1.44,2.86,2.86,0,0,0,.77,1,3.86,3.86,0,0,0,1.14.69,8.3,8.3,0,0,0,1.36.43l5.74,1.42a15.94,15.94,0,0,1,2.36.81,7.32,7.32,0,0,1,2,1.19,5,5,0,0,1,1.32,1.73,5.91,5.91,0,0,1,.48,2.47,8.33,8.33,0,0,1-.09,1.06,5.21,5.21,0,0,1-.39,1.4,7.14,7.14,0,0,1-.89,1.49,5.6,5.6,0,0,1-1.59,1.38,9.22,9.22,0,0,1-2.48,1,14.21,14.21,0,0,1-3.57.39,15.14,15.14,0,0,1-3.85-.48,8.29,8.29,0,0,1-3-1.47,6.54,6.54,0,0,1-1.93-2.54,8.43,8.43,0,0,1-.58-3.73h2.25a6.59,6.59,0,0,0,.56,3"/><path class="cls-1" d="M243.81,540a5.82,5.82,0,0,0,3.8-1.19,5.26,5.26,0,0,0,0-7.25,5.76,5.76,0,0,0-3.8-1.19H236.1V540Zm.5-11.55a8.68,8.68,0,0,1,2.87.45,6.14,6.14,0,0,1,2.21,1.32,6,6,0,0,1,1.42,2.13,8.45,8.45,0,0,1,0,5.67,5.86,5.86,0,0,1-1.42,2.13,6.14,6.14,0,0,1-2.21,1.32,8.69,8.69,0,0,1-2.87.44H236.1V552h-2.24V528.45Z"/><path class="cls-1" d="M291.81,533.16a6.63,6.63,0,0,0-1.64-1.81,8,8,0,0,0-2.14-1.1,8.12,8.12,0,0,0-2.47-.38,8.52,8.52,0,0,0-4,.89,8,8,0,0,0-2.75,2.36,10.08,10.08,0,0,0-1.58,3.32,14.26,14.26,0,0,0,0,7.56,10,10,0,0,0,1.58,3.34,7.85,7.85,0,0,0,2.75,2.35,8.4,8.4,0,0,0,4,.89,7.19,7.19,0,0,0,3-.59,7,7,0,0,0,2.28-1.61,8.4,8.4,0,0,0,1.55-2.4,10.08,10.08,0,0,0,.76-3h2.24a12.89,12.89,0,0,1-1,3.93,9.48,9.48,0,0,1-2,3,8.49,8.49,0,0,1-3,1.89,10.56,10.56,0,0,1-3.78.65,11.13,11.13,0,0,1-4.86-1,10.24,10.24,0,0,1-3.48-2.69,11.65,11.65,0,0,1-2.08-3.89,16,16,0,0,1,0-9.3,11.79,11.79,0,0,1,2.08-3.9A10,10,0,0,1,280.7,529a11.72,11.72,0,0,1,8.15-.51,9.77,9.77,0,0,1,2.9,1.46,8.46,8.46,0,0,1,2.17,2.4,7.84,7.84,0,0,1,1.11,3.26h-2.24a7.55,7.55,0,0,0-1-2.42"/><rect class="cls-1" x="301.49" y="528.46" width="2.24" height="23.55"/><rect class="cls-1" x="255.74" y="528.57" width="2.24" height="23.55"/><rect class="cls-1" x="256.93" y="528.54" width="12.76" height="2.24"/><rect class="cls-1" x="256.93" y="539.22" width="10.88" height="2.24"/><rect class="cls-1" x="256.93" y="549.89" width="12.76" height="2.24"/><path class="cls-1" d="M322.93,528.45v17a12,12,0,0,1-.36,3.13,5.14,5.14,0,0,1-1.17,2.18,5.07,5.07,0,0,1-2.12,1.29,10.5,10.5,0,0,1-3.21.42,7.1,7.1,0,0,1-3.3-.67,5.29,5.29,0,0,1-2-1.78,7,7,0,0,1-1-2.56,16.41,16.41,0,0,1-.26-3h2.24c0,.51.06,1.11.1,1.81a6,6,0,0,0,.46,2,4,4,0,0,0,1.3,1.63,4.48,4.48,0,0,0,2.65.67,5.87,5.87,0,0,0,2.18-.34,2.93,2.93,0,0,0,1.36-1.09,5.06,5.06,0,0,0,.69-1.9,16.83,16.83,0,0,0,.2-2.77v-16Z"/><path class="cls-1" d="M342.81,542.77l-4.55-12.07-4.71,12.07Zm-3.2-14.32L348.85,552h-2.41l-2.87-7.32H332.86L330,552h-2.38l9.47-23.55Z"/><polygon class="cls-1" points="355.77 528.46 355.77 550.09 368.96 550.09 368.96 552 353.53 552 353.53 528.46 355.77 528.46"/><rect class="cls-1" x="373.94" y="528.46" width="2.24" height="23.55"/><path class="cls-1" d="M385.25,547.29a5,5,0,0,0,1.63,1.94,6.75,6.75,0,0,0,2.46,1,14,14,0,0,0,3,.31,8.4,8.4,0,0,0,2-.26,7.09,7.09,0,0,0,2-.84A5.15,5.15,0,0,0,398,548a3.72,3.72,0,0,0,.63-2.19,3.18,3.18,0,0,0-.45-1.71,4.18,4.18,0,0,0-1.15-1.22,6.85,6.85,0,0,0-1.57-.81,14.53,14.53,0,0,0-1.68-.51l-5.24-1.29a15.6,15.6,0,0,1-2-.66,5.65,5.65,0,0,1-1.7-1.05,5.11,5.11,0,0,1-1.17-1.62,5.65,5.65,0,0,1-.44-2.34,7.09,7.09,0,0,1,.33-2,5.63,5.63,0,0,1,1.23-2.18,7.24,7.24,0,0,1,2.5-1.73,10,10,0,0,1,4.05-.71,12.07,12.07,0,0,1,3.33.46,8.11,8.11,0,0,1,2.77,1.39,6.94,6.94,0,0,1,1.9,2.29,6.87,6.87,0,0,1,.71,3.18h-2.24a5.45,5.45,0,0,0-.62-2.36,5.23,5.23,0,0,0-1.41-1.68,6.3,6.3,0,0,0-2-1,8.1,8.1,0,0,0-2.38-.34,9.59,9.59,0,0,0-2.23.24,5.51,5.51,0,0,0-1.88.8,4,4,0,0,0-1.3,1.43,4.37,4.37,0,0,0-.5,2.2,3.33,3.33,0,0,0,.28,1.44,3,3,0,0,0,.78,1,3.81,3.81,0,0,0,1.13.69,8.42,8.42,0,0,0,1.37.43l5.74,1.42a16.35,16.35,0,0,1,2.36.81,7.43,7.43,0,0,1,1.94,1.19,5,5,0,0,1,1.32,1.73,5.76,5.76,0,0,1,.48,2.47,10.21,10.21,0,0,1-.08,1.06,5.66,5.66,0,0,1-.4,1.4,6.74,6.74,0,0,1-.89,1.49,5.55,5.55,0,0,1-1.58,1.38,9.3,9.3,0,0,1-2.49,1,14.18,14.18,0,0,1-3.56.39A15.22,15.22,0,0,1,388,552a8.37,8.37,0,0,1-3-1.47A6.64,6.64,0,0,1,383,548a8.29,8.29,0,0,1-.57-3.73h2.24a6.72,6.72,0,0,0,.56,3"/><polygon class="cls-1" points="423.08 528.46 423.08 530.37 414.87 530.37 414.87 552 412.63 552 412.63 530.37 404.45 530.37 404.45 528.46 423.08 528.46"/><rect class="cls-1" x="427.99" y="528.46" width="2.24" height="23.55"/><path class="cls-1" d="M444.74,521.56l2.84,3.37,2.9-3.37h1.91l-3.76,4.65h-2.28l-3.72-4.65Zm9.18,11.6a6.63,6.63,0,0,0-1.64-1.81,7.7,7.7,0,0,0-4.61-1.48,8.55,8.55,0,0,0-4,.89,8,8,0,0,0-2.75,2.36,10.08,10.08,0,0,0-1.58,3.32,14,14,0,0,0,0,7.56,10,10,0,0,0,1.58,3.34,7.85,7.85,0,0,0,2.75,2.35,8.43,8.43,0,0,0,4,.89,7.22,7.22,0,0,0,3-.59,6.88,6.88,0,0,0,2.28-1.61,8.4,8.4,0,0,0,1.55-2.4,9.78,9.78,0,0,0,.76-3h2.24a13.19,13.19,0,0,1-1,3.93,9.62,9.62,0,0,1-2,3,8.72,8.72,0,0,1-3,1.89,10.56,10.56,0,0,1-3.78.65,11.13,11.13,0,0,1-4.86-1,10.14,10.14,0,0,1-3.48-2.69,11.45,11.45,0,0,1-2.07-3.89,15.79,15.79,0,0,1,0-9.3,11.59,11.59,0,0,1,2.07-3.9,10,10,0,0,1,3.48-2.71,11.14,11.14,0,0,1,4.86-1,11,11,0,0,1,3.28.5,9.7,9.7,0,0,1,2.91,1.46,8.64,8.64,0,0,1,2.18,2.4,8,8,0,0,1,1.1,3.26H454.9a7.33,7.33,0,0,0-1-2.42"/><polygon class="cls-1" points="465.68 528.46 465.68 541.12 479.37 528.46 482.4 528.46 471.88 538.18 482.9 552 479.99 552 470.2 539.73 465.68 543.92 465.68 552 463.44 552 463.44 528.46 465.68 528.46"/><path class="cls-1" d="M499.94,542.77l-4.55-12.07-4.71,12.07Zm-3.19-14.32L506,552h-2.41l-2.86-7.32H490L487.15,552h-2.38l9.47-23.55Z"/><path class="cls-1" d="M523.87,544a10,10,0,0,0,1.59,3.34,7.85,7.85,0,0,0,2.75,2.35,9.5,9.5,0,0,0,8,0,8.09,8.09,0,0,0,2.74-2.35,10.2,10.2,0,0,0,1.58-3.34,14.26,14.26,0,0,0,0-7.56,10.29,10.29,0,0,0-1.58-3.32,8.23,8.23,0,0,0-2.74-2.36,9.5,9.5,0,0,0-8,0,8,8,0,0,0-2.75,2.36,10.1,10.1,0,0,0-1.59,3.32,14.26,14.26,0,0,0,0,7.56m-2.06-8.42a11.61,11.61,0,0,1,2.08-3.9,9.86,9.86,0,0,1,3.48-2.71,12.17,12.17,0,0,1,9.71,0,10,10,0,0,1,3.46,2.71,11.61,11.61,0,0,1,2.08,3.9,16,16,0,0,1,0,9.3,11.47,11.47,0,0,1-2.08,3.89,10.16,10.16,0,0,1-3.46,2.69,12.29,12.29,0,0,1-9.71,0,10,10,0,0,1-3.48-2.69,11.47,11.47,0,0,1-2.08-3.89,15.79,15.79,0,0,1,0-9.3"/><path class="cls-1" d="M560,539.64a6,6,0,0,0,1.95-.32,4.81,4.81,0,0,0,1.61-.91,4.23,4.23,0,0,0,1.52-3.36,4.62,4.62,0,0,0-1.25-3.43,5.22,5.22,0,0,0-3.83-1.25h-8.37v9.27Zm.17-11.19a10.32,10.32,0,0,1,2.75.37,6.72,6.72,0,0,1,2.28,1.1,5.55,5.55,0,0,1,1.55,1.92,6.19,6.19,0,0,1,.58,2.75,6.6,6.6,0,0,1-1.16,3.89,5.26,5.26,0,0,1-3.43,2.11v.06a5.3,5.3,0,0,1,1.91.62,3.77,3.77,0,0,1,1.24,1.14,4.46,4.46,0,0,1,.69,1.6,10.63,10.63,0,0,1,.28,2c0,.39,0,.88.07,1.45s.06,1.15.13,1.73a11.77,11.77,0,0,0,.31,1.65,3.2,3.2,0,0,0,.58,1.2h-2.47a2.74,2.74,0,0,1-.31-.81,6.2,6.2,0,0,1-.17-1c0-.34-.06-.67-.08-1s0-.61-.07-.86q-.06-1.25-.21-2.49a6.73,6.73,0,0,0-.63-2.2,3.84,3.84,0,0,0-1.39-1.57,4.14,4.14,0,0,0-2.48-.54h-8.51V552h-2.24V528.45Z"/><path class="cls-1" d="M580.9,550.09a15.14,15.14,0,0,0,4.37-.55,7,7,0,0,0,3-1.72,7.29,7.29,0,0,0,1.75-3.07,18.52,18.52,0,0,0,0-9,7.13,7.13,0,0,0-1.75-3.06,6.94,6.94,0,0,0-3-1.74,15.52,15.52,0,0,0-4.37-.54h-4.78v19.72ZM582,528.45c3.59.1,6.29,1.1,8.1,3s2.72,4.85,2.72,8.76-.9,6.83-2.72,8.76-4.51,2.92-8.1,3h-8.14V528.45Z"/><rect class="cls-1" x="599.18" y="528.46" width="2.24" height="23.55"/><polygon class="cls-1" points="611.34 528.46 625.06 548.38 625.12 548.38 625.12 528.46 627.37 528.46 627.37 552 624.86 552 611.14 532.08 611.07 532.08 611.07 552 608.83 552 608.83 528.46 611.34 528.46"/><path class="cls-1" d="M647.22,542.77l-4.55-12.07L638,542.77ZM644,528.45,653.26,552h-2.41L648,544.68H637.26L634.42,552h-2.37l9.47-23.55Z"/><path class="cls-1" d="M674.18,533.16a6.82,6.82,0,0,0-1.65-1.81,7.88,7.88,0,0,0-2.14-1.1,8,8,0,0,0-2.46-.38,8.59,8.59,0,0,0-4,.89,8,8,0,0,0-2.75,2.36,10.08,10.08,0,0,0-1.58,3.32,14.26,14.26,0,0,0,0,7.56,10,10,0,0,0,1.58,3.34,7.85,7.85,0,0,0,2.75,2.35,8.47,8.47,0,0,0,4,.89,7.26,7.26,0,0,0,3-.59,6.84,6.84,0,0,0,2.27-1.61,8.19,8.19,0,0,0,1.55-2.4,9.78,9.78,0,0,0,.76-3h2.24a12.61,12.61,0,0,1-1,3.93,9.62,9.62,0,0,1-2,3,8.62,8.62,0,0,1-3,1.89,10.54,10.54,0,0,1-3.77.65,11.07,11.07,0,0,1-4.86-1,10,10,0,0,1-3.48-2.69,11.47,11.47,0,0,1-2.08-3.89,16,16,0,0,1,0-9.3,11.61,11.61,0,0,1,2.08-3.9,9.86,9.86,0,0,1,3.48-2.71,11.7,11.7,0,0,1,8.14-.51,9.53,9.53,0,0,1,2.9,1.46,8.49,8.49,0,0,1,2.18,2.4,8.14,8.14,0,0,1,1.11,3.26h-2.25a7.54,7.54,0,0,0-1-2.42"/><rect class="cls-1" x="683.85" y="528.46" width="2.24" height="23.55"/><path class="cls-1" d="M705.29,528.45v17a12,12,0,0,1-.36,3.13,4.72,4.72,0,0,1-3.29,3.47,10.5,10.5,0,0,1-3.21.42,7,7,0,0,1-3.29-.67,5.22,5.22,0,0,1-2-1.78,6.83,6.83,0,0,1-1-2.56,17.35,17.35,0,0,1-.26-3h2.24c0,.51.06,1.11.1,1.81a6.26,6.26,0,0,0,.46,2,4,4,0,0,0,1.3,1.63,4.5,4.5,0,0,0,2.66.67,5.94,5.94,0,0,0,2.18-.34,3,3,0,0,0,1.35-1.09,5.06,5.06,0,0,0,.7-1.9,18.14,18.14,0,0,0,.19-2.77v-16Z"/><path class="cls-1" d="M725.18,542.77l-4.55-12.07-4.72,12.07ZM722,528.45,731.21,552H728.8l-2.86-7.32H715.22L712.39,552H710l9.46-23.55Z"/><polygon class="cls-1" points="763.4 528.46 763.4 530.44 747.9 550.09 763.73 550.09 763.73 552 745.39 552 745.39 550.03 760.89 530.37 746.45 530.37 746.45 528.46 763.4 528.46"/><path class="cls-1" d="M781.67,542.77l-4.55-12.07-4.72,12.07Zm-3.2-14.32L787.7,552h-2.4l-2.87-7.32H771.71L768.87,552H766.5L776,528.45Z"/><path class="cls-1" d="M805.59,544a10.2,10.2,0,0,0,1.58,3.34,8,8,0,0,0,2.75,2.35,8.47,8.47,0,0,0,4,.89,8.33,8.33,0,0,0,4-.89,8,8,0,0,0,2.73-2.35,10,10,0,0,0,1.58-3.34,14,14,0,0,0,0-7.56,10.08,10.08,0,0,0-1.58-3.32,8.1,8.1,0,0,0-2.73-2.36,8.45,8.45,0,0,0-4-.89,8.59,8.59,0,0,0-4,.89,8.17,8.17,0,0,0-2.75,2.36,10.29,10.29,0,0,0-1.58,3.32,14,14,0,0,0,0,7.56m-2.06-8.42a11.44,11.44,0,0,1,2.08-3.9,9.92,9.92,0,0,1,3.47-2.71,11.15,11.15,0,0,1,4.87-1,11,11,0,0,1,4.84,1,10,10,0,0,1,3.47,2.71,11.61,11.61,0,0,1,2.08,3.9,16,16,0,0,1,0,9.3,11.47,11.47,0,0,1-2.08,3.89,10.2,10.2,0,0,1-3.47,2.69,11,11,0,0,1-4.84,1,11.15,11.15,0,0,1-4.87-1,10.1,10.1,0,0,1-3.47-2.69,11.3,11.3,0,0,1-2.08-3.89,15.79,15.79,0,0,1,0-9.3"/><path class="cls-1" d="M841.68,539.64a6,6,0,0,0,2-.32,4.76,4.76,0,0,0,1.62-.91,4.31,4.31,0,0,0,1.1-1.43,4.25,4.25,0,0,0,.41-1.93,4.66,4.66,0,0,0-1.25-3.43,5.24,5.24,0,0,0-3.83-1.25h-8.37v9.27Zm.17-11.19a10.26,10.26,0,0,1,2.75.37,6.72,6.72,0,0,1,2.28,1.1,5.44,5.44,0,0,1,1.55,1.92,6.19,6.19,0,0,1,.57,2.75,6.59,6.59,0,0,1-1.15,3.89,5.26,5.26,0,0,1-3.43,2.11v.06a5.3,5.3,0,0,1,1.91.62,3.77,3.77,0,0,1,1.24,1.14,4.46,4.46,0,0,1,.69,1.6,10.63,10.63,0,0,1,.28,2c0,.39,0,.88.07,1.45s.06,1.15.13,1.73a11.77,11.77,0,0,0,.31,1.65,3.2,3.2,0,0,0,.58,1.2h-2.47a2.74,2.74,0,0,1-.31-.81,6.2,6.2,0,0,1-.17-1c0-.34-.06-.67-.08-1s-.05-.61-.07-.86c0-.83-.11-1.66-.22-2.49a6.49,6.49,0,0,0-.62-2.2,3.84,3.84,0,0,0-1.39-1.57,4.14,4.14,0,0,0-2.48-.54h-8.51V552h-2.25V528.45Z"/><polygon class="cls-1" points="871.92 528.46 871.92 530.37 863.71 530.37 863.71 552 861.47 552 861.47 530.37 853.29 530.37 853.29 528.46 871.92 528.46"/><path class="cls-1" d="M878.17,544a10,10,0,0,0,1.59,3.34,7.85,7.85,0,0,0,2.75,2.35,9.5,9.5,0,0,0,8,0,7.88,7.88,0,0,0,2.73-2.35,10,10,0,0,0,1.59-3.34,14.26,14.26,0,0,0,0-7.56,10.1,10.1,0,0,0-1.59-3.32,8,8,0,0,0-2.73-2.36,9.5,9.5,0,0,0-8,0,8,8,0,0,0-2.75,2.36,10.1,10.1,0,0,0-1.59,3.32,14.26,14.26,0,0,0,0,7.56m-2.06-8.42a11.61,11.61,0,0,1,2.08-3.9,10,10,0,0,1,3.48-2.71,12.17,12.17,0,0,1,9.71,0,10,10,0,0,1,3.46,2.71,11.44,11.44,0,0,1,2.08,3.9,16,16,0,0,1,0,9.3,11.3,11.3,0,0,1-2.08,3.89,10.16,10.16,0,0,1-3.46,2.69,12.29,12.29,0,0,1-9.71,0,10.14,10.14,0,0,1-3.48-2.69,11.47,11.47,0,0,1-2.08-3.89,16,16,0,0,1,0-9.3"/><path class="cls-1" d="M910.67,550.09a15.19,15.19,0,0,0,4.37-.55,6.6,6.6,0,0,0,4.76-4.79,18.52,18.52,0,0,0,0-9,6.67,6.67,0,0,0-4.76-4.8,15.57,15.57,0,0,0-4.37-.54h-4.78v19.72Zm1.12-21.64c3.58.1,6.28,1.1,8.1,3s2.71,4.85,2.71,8.76-.9,6.83-2.71,8.76-4.52,2.92-8.1,3h-8.15V528.45Z"/><path class="cls-1" d="M930.27,544a10.21,10.21,0,0,0,1.59,3.34,7.85,7.85,0,0,0,2.75,2.35,8.46,8.46,0,0,0,4,.89,8.33,8.33,0,0,0,4-.89,7.91,7.91,0,0,0,2.74-2.35A10,10,0,0,0,947,544a14.26,14.26,0,0,0,0-7.56,10.08,10.08,0,0,0-1.58-3.32,8,8,0,0,0-2.74-2.36,8.45,8.45,0,0,0-4-.89,8.58,8.58,0,0,0-4,.89,8,8,0,0,0-2.75,2.36,10.31,10.31,0,0,0-1.59,3.32,14.26,14.26,0,0,0,0,7.56m-2-8.42a11.44,11.44,0,0,1,2.08-3.9,9.92,9.92,0,0,1,3.47-2.71,11.14,11.14,0,0,1,4.86-1,11,11,0,0,1,4.85,1,10,10,0,0,1,3.47,2.71,11.79,11.79,0,0,1,2.08,3.9,16,16,0,0,1,0,9.3,11.65,11.65,0,0,1-2.08,3.89,10.2,10.2,0,0,1-3.47,2.69,11,11,0,0,1-4.85,1,11.13,11.13,0,0,1-4.86-1,10.1,10.1,0,0,1-3.47-2.69,11.3,11.3,0,0,1-2.08-3.89,15.79,15.79,0,0,1,0-9.3"/><polygon class="cls-1" points="958.22 528.46 971.94 548.38 972 548.38 972 528.46 974.25 528.46 974.25 552 971.74 552 958.02 532.08 957.96 532.08 957.96 552 955.72 552 955.72 528.46 958.22 528.46"/><path class="cls-1" d="M997.75,533.16a6.86,6.86,0,0,0-1.66-1.81,7.83,7.83,0,0,0-2.13-1.1,8.12,8.12,0,0,0-2.47-.38,8.55,8.55,0,0,0-4,.89,8,8,0,0,0-2.75,2.36,10.08,10.08,0,0,0-1.58,3.32,14.26,14.26,0,0,0,0,7.56,10,10,0,0,0,1.58,3.34,7.85,7.85,0,0,0,2.75,2.35,8.43,8.43,0,0,0,4,.89,7.22,7.22,0,0,0,3-.59,6.88,6.88,0,0,0,2.28-1.61,8.19,8.19,0,0,0,1.55-2.4,9.78,9.78,0,0,0,.76-3h2.24a12.89,12.89,0,0,1-1,3.93,9.48,9.48,0,0,1-2,3,8.58,8.58,0,0,1-3,1.89,10.56,10.56,0,0,1-3.78.65,11.1,11.1,0,0,1-4.86-1,10.14,10.14,0,0,1-3.48-2.69,11.65,11.65,0,0,1-2.08-3.89,16,16,0,0,1,0-9.3,11.79,11.79,0,0,1,2.08-3.9,10,10,0,0,1,3.48-2.71,11.72,11.72,0,0,1,8.15-.51,9.77,9.77,0,0,1,2.9,1.46,8.49,8.49,0,0,1,2.18,2.4,8,8,0,0,1,1.1,3.26h-2.24a7.54,7.54,0,0,0-1-2.42"/><rect class="cls-1" x="1007.43" y="528.46" width="2.24" height="23.55"/><path class="cls-1" d="M1028.86,528.45v17a11.53,11.53,0,0,1-.37,3.13,4.68,4.68,0,0,1-3.28,3.47,10.55,10.55,0,0,1-3.21.42,7.1,7.1,0,0,1-3.3-.67,5.29,5.29,0,0,1-2-1.78,6.81,6.81,0,0,1-1-2.56,17.35,17.35,0,0,1-.26-3h2.24c0,.51.05,1.11.1,1.81a6.54,6.54,0,0,0,.46,2,3.9,3.9,0,0,0,1.3,1.63,4.5,4.5,0,0,0,2.66.67,5.85,5.85,0,0,0,2.17-.34,2.81,2.81,0,0,0,1.35-1.09,4.74,4.74,0,0,0,.7-1.9,16.94,16.94,0,0,0,.19-2.77v-16Z"/><path class="cls-1" d="M1038.16,528.45V543a11.42,11.42,0,0,0,.46,3.48,5.83,5.83,0,0,0,1.35,2.34,5.17,5.17,0,0,0,2.18,1.32,9.32,9.32,0,0,0,2.9.41,9.5,9.5,0,0,0,2.94-.41,5.13,5.13,0,0,0,2.17-1.32,5.6,5.6,0,0,0,1.35-2.34A11.42,11.42,0,0,0,1052,543V528.45h2.25v15.08a11.41,11.41,0,0,1-.51,3.44,7.63,7.63,0,0,1-1.62,2.86,7.81,7.81,0,0,1-2.84,1.93,12.86,12.86,0,0,1-8.37,0,7.81,7.81,0,0,1-2.84-1.93,7.48,7.48,0,0,1-1.61-2.86,11.41,11.41,0,0,1-.51-3.44V528.45Z"/><path class="cls-2" d="M697.09,234.41c0-48.28-57.33-37.69-89.05-37.69-8.32,0-8.34,12.93,0,12.93,22.8,0,76-11,76.11,24.76.08,20.69-14.35,23-27.79,22.82-16.1-.2-32.22,0-48.32.06a6.56,6.56,0,0,0-6.46,6.46v60.68c-2.18.73-21.13-22.07-23-24.82A283,283,0,0,1,561,269a159.6,159.6,0,0,1-11.37-31.18c-6.29-24.59-7.87-54.55,15.68-70.65,16.7-11.43,40-12.25,58-3.08,7.4,3.76,13.95-7.39,6.53-11.17-24-12.21-54.15-10.48-75.42,6.35-26.2,20.74-24.53,56.12-16.36,85.46,6.14,22,16.77,42.43,29.37,61.45,6.45,9.74,37,50.88,46.81,21.63a7.43,7.43,0,0,0,.25-2.7c0-.05,0-.64,0-.69V270.21l23.22,0c5.85,0,11.71,0,17.57,0,4.41,0,4.15.06,5.82.06,22,0,36-12.81,36-35.81"/><path class="cls-2" d="M728.84,158.6c-21.68-16.56-52.19-18.37-76.4-6-7.41,3.78-.88,14.94,6.53,11.17,17.76-9.07,41-8.53,57.82,2.09,28,17.65,26.38,50,16.53,77.66A170.11,170.11,0,0,1,719.06,273a289.63,289.63,0,0,1-20.73,30.74c-4.72,6-19.92,27.15-21,16.38,0-6.55-.32-14.47-.32-21,0-8.32-12.93-8.33-12.93,0v13.55c0,1.79,0,2.33,0,3,0,9.95,2.64,22.1,15.31,21.5,12.32-.57,22.74-17.45,29.55-26.23,14-18,26.7-38,35-59.34,12.43-32,14.78-70.11-15.19-93"/></svg>