<svg id="Layer_1" data-name="Layer 1" xmlns="http://www.w3.org/2000/svg" viewBox="0 0 1278.49 716.35"><defs><style>.cls-1{fill:#303030;}.cls-2{fill:#b3c19d;}</style></defs><path class="cls-1" d="M333.79,430.15a4.07,4.07,0,0,0,1.29,1.54,5.49,5.49,0,0,0,1.94.82,10.84,10.84,0,0,0,2.4.25,6.82,6.82,0,0,0,1.59-.21,5.49,5.49,0,0,0,1.6-.67,3.93,3.93,0,0,0,1.23-1.17,2.94,2.94,0,0,0,.5-1.73,2.56,2.56,0,0,0-.35-1.35,3.5,3.5,0,0,0-.91-1,5.36,5.36,0,0,0-1.24-.63,11.88,11.88,0,0,0-1.33-.41l-4.14-1a14.59,14.59,0,0,1-1.58-.52,4.61,4.61,0,0,1-1.34-.84,4.11,4.11,0,0,1-.92-1.27,4.46,4.46,0,0,1-.35-1.85,5.68,5.68,0,0,1,.26-1.59,4.35,4.35,0,0,1,1-1.72,5.54,5.54,0,0,1,2-1.36,7.75,7.75,0,0,1,3.21-.57,9.37,9.37,0,0,1,2.62.37,6.43,6.43,0,0,1,2.19,1.09,5.49,5.49,0,0,1,1.5,1.81,5.43,5.43,0,0,1,.56,2.51h-1.77a4.52,4.52,0,0,0-.48-1.86,4.25,4.25,0,0,0-1.12-1.33,5,5,0,0,0-1.59-.8,6.55,6.55,0,0,0-1.89-.28,7.85,7.85,0,0,0-1.76.2,4.3,4.3,0,0,0-1.48.63,3.12,3.12,0,0,0-1,1.13,3.55,3.55,0,0,0-.39,1.74,2.62,2.62,0,0,0,.22,1.13,2.38,2.38,0,0,0,.61.82,3.15,3.15,0,0,0,.9.55,6.18,6.18,0,0,0,1.08.34l4.53,1.12a14,14,0,0,1,1.86.64,5.77,5.77,0,0,1,1.54.94,4,4,0,0,1,1,1.36,4.63,4.63,0,0,1,.38,2,6.1,6.1,0,0,1-.07.83,4.06,4.06,0,0,1-.31,1.11,5.45,5.45,0,0,1-.7,1.18,4.34,4.34,0,0,1-1.25,1.08,7.22,7.22,0,0,1-2,.78,11.41,11.41,0,0,1-2.81.3,11.86,11.86,0,0,1-3.05-.37,6.74,6.74,0,0,1-2.39-1.16,5.09,5.09,0,0,1-1.52-2,6.55,6.55,0,0,1-.46-2.94h1.77a5.19,5.19,0,0,0,.44,2.39"/><path class="cls-1" d="M358.79,424.4a4.58,4.58,0,0,0,3-.94,4.17,4.17,0,0,0,0-5.73,4.64,4.64,0,0,0-3-.94H352.7v7.61Zm.39-9.12a6.8,6.8,0,0,1,2.27.36,4.7,4.7,0,0,1,1.74,1,4.55,4.55,0,0,1,1.12,1.68,6,6,0,0,1,.39,2.23,6.14,6.14,0,0,1-.39,2.25,4.55,4.55,0,0,1-1.12,1.68,4.84,4.84,0,0,1-1.74,1,7.07,7.07,0,0,1-2.27.35H352.7v8h-1.77v-18.6Z"/><path class="cls-1" d="M396.69,419a5.24,5.24,0,0,0-1.3-1.43,6,6,0,0,0-1.69-.87,6.25,6.25,0,0,0-1.94-.3,6.72,6.72,0,0,0-3.18.71,6.22,6.22,0,0,0-2.17,1.86,7.84,7.84,0,0,0-1.25,2.62,11.34,11.34,0,0,0,0,6,7.89,7.89,0,0,0,1.25,2.63,6.12,6.12,0,0,0,2.17,1.86,6.72,6.72,0,0,0,3.18.71,5.65,5.65,0,0,0,2.34-.47,5.42,5.42,0,0,0,1.8-1.28,6.27,6.27,0,0,0,1.22-1.89,7.63,7.63,0,0,0,.61-2.32h1.77a10.46,10.46,0,0,1-.81,3.09,7.68,7.68,0,0,1-1.62,2.35,6.72,6.72,0,0,1-2.33,1.48,8.07,8.07,0,0,1-3,.52,8.75,8.75,0,0,1-3.84-.79,8.08,8.08,0,0,1-2.75-2.12,9.11,9.11,0,0,1-1.64-3.08,12.52,12.52,0,0,1,0-7.34,9.21,9.21,0,0,1,1.64-3.08,7.89,7.89,0,0,1,2.75-2.14,9.27,9.27,0,0,1,6.43-.41,7.72,7.72,0,0,1,2.29,1.16,6.9,6.9,0,0,1,1.72,1.89,6.37,6.37,0,0,1,.87,2.58h-1.77a5.68,5.68,0,0,0-.77-1.91"/><rect class="cls-1" x="404.34" y="415.28" width="1.77" height="18.59"/><rect class="cls-1" x="368.21" y="415.37" width="1.77" height="18.59"/><rect class="cls-1" x="369.14" y="415.35" width="10.08" height="1.77"/><rect class="cls-1" x="369.14" y="423.78" width="8.59" height="1.77"/><rect class="cls-1" x="369.14" y="432.21" width="10.08" height="1.77"/><path class="cls-1" d="M421.26,415.28v13.41a9.52,9.52,0,0,1-.28,2.48,4,4,0,0,1-.93,1.72,3.85,3.85,0,0,1-1.66,1,8.09,8.09,0,0,1-2.54.34,5.69,5.69,0,0,1-2.61-.53,4.25,4.25,0,0,1-1.58-1.41,5.24,5.24,0,0,1-.79-2,13.06,13.06,0,0,1-.21-2.37h1.77c0,.41.05.88.08,1.43a5.11,5.11,0,0,0,.37,1.6,3,3,0,0,0,1,1.28,3.43,3.43,0,0,0,2.09.54,4.45,4.45,0,0,0,1.72-.28,2.27,2.27,0,0,0,1.07-.86,4,4,0,0,0,.55-1.49,13.76,13.76,0,0,0,.15-2.19V415.28Z"/><path class="cls-1" d="M437,426.59l-3.6-9.54-3.72,9.54Zm-2.53-11.31,7.29,18.6h-1.9l-2.27-5.78H429.1l-2.24,5.78H425l7.47-18.6Z"/><polygon class="cls-1" points="447.2 415.28 447.2 432.37 457.62 432.37 457.62 433.88 445.43 433.88 445.43 415.28 447.2 415.28"/><rect class="cls-1" x="461.55" y="415.28" width="1.77" height="18.59"/><path class="cls-1" d="M470.48,430.15a3.9,3.9,0,0,0,1.29,1.54,5.42,5.42,0,0,0,1.94.82,10.72,10.72,0,0,0,2.4.25,6.68,6.68,0,0,0,1.58-.21,5.38,5.38,0,0,0,1.6-.67,4,4,0,0,0,1.24-1.17A2.94,2.94,0,0,0,481,429a2.47,2.47,0,0,0-.35-1.35,3.23,3.23,0,0,0-.91-1,5,5,0,0,0-1.24-.63,12.4,12.4,0,0,0-1.32-.41l-4.14-1a13.91,13.91,0,0,1-1.58-.52,4.48,4.48,0,0,1-1.34-.84,4.13,4.13,0,0,1-.93-1.27,4.46,4.46,0,0,1-.35-1.85,5.74,5.74,0,0,1,.27-1.59,4.32,4.32,0,0,1,1-1.72,5.59,5.59,0,0,1,2-1.36,7.74,7.74,0,0,1,3.2-.57,9.44,9.44,0,0,1,2.63.37,6.62,6.62,0,0,1,2.19,1.09,5.46,5.46,0,0,1,1.49,1.81,5.31,5.31,0,0,1,.57,2.51h-1.77a4.37,4.37,0,0,0-.49-1.86,4.25,4.25,0,0,0-1.12-1.33,5,5,0,0,0-1.59-.8,6.53,6.53,0,0,0-1.88-.28,7.78,7.78,0,0,0-1.76.2,4.22,4.22,0,0,0-1.48.63,3.12,3.12,0,0,0-1,1.13,3.45,3.45,0,0,0-.4,1.74,2.62,2.62,0,0,0,.23,1.13,2.26,2.26,0,0,0,.61.82,3.24,3.24,0,0,0,.89.55,6.46,6.46,0,0,0,1.08.34l4.54,1.12a14,14,0,0,1,1.86.64,6.1,6.1,0,0,1,1.54.94,4,4,0,0,1,1,1.36,4.63,4.63,0,0,1,.38,2c0,.2,0,.48-.07.83a4.46,4.46,0,0,1-.31,1.11,5.89,5.89,0,0,1-.7,1.18,4.53,4.53,0,0,1-1.26,1.08,7.15,7.15,0,0,1-2,.78,11.49,11.49,0,0,1-2.82.3,11.78,11.78,0,0,1-3-.37,6.71,6.71,0,0,1-2.4-1.16,5.29,5.29,0,0,1-1.52-2,6.42,6.42,0,0,1-.45-2.94H470a5.19,5.19,0,0,0,.44,2.39"/><polygon class="cls-1" points="500.35 415.28 500.35 416.79 493.86 416.79 493.86 433.88 492.09 433.88 492.09 416.79 485.64 416.79 485.64 415.28 500.35 415.28"/><rect class="cls-1" x="504.23" y="415.28" width="1.77" height="18.59"/><path class="cls-1" d="M517.45,409.84l2.24,2.66,2.3-2.66h1.51l-3,3.67h-1.8l-2.94-3.67Zm7.26,9.16a5.44,5.44,0,0,0-1.31-1.43,6,6,0,0,0-1.69-.87,6.2,6.2,0,0,0-1.94-.3,6.72,6.72,0,0,0-3.18.71,6.22,6.22,0,0,0-2.17,1.86,7.84,7.84,0,0,0-1.25,2.62,11.34,11.34,0,0,0,0,6,7.89,7.89,0,0,0,1.25,2.63,6.12,6.12,0,0,0,2.17,1.86,6.72,6.72,0,0,0,3.18.71,5.65,5.65,0,0,0,2.34-.47,5.42,5.42,0,0,0,1.8-1.28,6.49,6.49,0,0,0,1.23-1.89,7.61,7.61,0,0,0,.59-2.32h1.77a10.16,10.16,0,0,1-.8,3.09,7.83,7.83,0,0,1-1.61,2.35,6.86,6.86,0,0,1-2.34,1.48,8.07,8.07,0,0,1-3,.52,8.78,8.78,0,0,1-3.84-.79,8.08,8.08,0,0,1-2.75-2.12,9.29,9.29,0,0,1-1.64-3.08,12.74,12.74,0,0,1,0-7.34,9.39,9.39,0,0,1,1.64-3.08,7.89,7.89,0,0,1,2.75-2.14,8.78,8.78,0,0,1,3.84-.8,8.69,8.69,0,0,1,2.59.39,7.9,7.9,0,0,1,2.3,1.16,7,7,0,0,1,1.71,1.89,6.37,6.37,0,0,1,.88,2.58h-1.78a5.88,5.88,0,0,0-.76-1.91"/><polygon class="cls-1" points="533.99 415.28 533.99 425.29 544.8 415.28 547.2 415.28 538.89 422.97 547.59 433.88 545.29 433.88 537.56 424.19 533.99 427.5 533.99 433.88 532.22 433.88 532.22 415.28 533.99 415.28"/><path class="cls-1" d="M561.05,426.59l-3.6-9.54-3.72,9.54Zm-2.53-11.31,7.29,18.6h-1.9l-2.26-5.78h-8.47l-2.24,5.78h-1.87l7.47-18.6Z"/><path class="cls-1" d="M579.94,427.56a7.89,7.89,0,0,0,1.25,2.63,6.12,6.12,0,0,0,2.17,1.86,6.72,6.72,0,0,0,3.18.71,6.65,6.65,0,0,0,3.17-.71,6.26,6.26,0,0,0,2.16-1.86,8.09,8.09,0,0,0,1.25-2.63,11.34,11.34,0,0,0,0-6,8,8,0,0,0-1.25-2.62,6.37,6.37,0,0,0-2.16-1.86,6.65,6.65,0,0,0-3.17-.71,6.72,6.72,0,0,0-3.18.71,6.22,6.22,0,0,0-2.17,1.86,7.84,7.84,0,0,0-1.25,2.62,11.34,11.34,0,0,0,0,6m-1.63-6.65a9.21,9.21,0,0,1,1.64-3.08,7.89,7.89,0,0,1,2.75-2.14,9.59,9.59,0,0,1,7.67,0,7.91,7.91,0,0,1,2.73,2.14,9,9,0,0,1,1.64,3.08,12.52,12.52,0,0,1,0,7.34,8.94,8.94,0,0,1-1.64,3.08,8.1,8.1,0,0,1-2.73,2.12,9.7,9.7,0,0,1-7.67,0,8.08,8.08,0,0,1-2.75-2.12,9.11,9.11,0,0,1-1.64-3.08,12.52,12.52,0,0,1,0-7.34"/><path class="cls-1" d="M608.44,424.11a4.91,4.91,0,0,0,1.54-.24,4,4,0,0,0,1.27-.72,3.32,3.32,0,0,0,1.2-2.66,3.67,3.67,0,0,0-1-2.71,4.14,4.14,0,0,0-3-1h-6.61v7.32Zm.13-8.83a8.2,8.2,0,0,1,2.18.29,5.24,5.24,0,0,1,1.79.87,4.35,4.35,0,0,1,1.23,1.51,4.93,4.93,0,0,1,.45,2.18,5.2,5.2,0,0,1-.91,3.07,4.18,4.18,0,0,1-2.71,1.67v.05a4.26,4.26,0,0,1,1.51.48,3,3,0,0,1,1,.9,3.8,3.8,0,0,1,.55,1.26,10.33,10.33,0,0,1,.22,1.55c0,.31,0,.7,0,1.15s.05.9.11,1.36a8.7,8.7,0,0,0,.24,1.31,2.48,2.48,0,0,0,.46.95h-2a2.51,2.51,0,0,1-.24-.64,4,4,0,0,1-.13-.79c0-.26,0-.52-.07-.79s0-.48-.05-.67c0-.66-.09-1.32-.17-2a5.2,5.2,0,0,0-.5-1.74,3,3,0,0,0-1.09-1.24,3.34,3.34,0,0,0-2-.42h-6.72v8.26h-1.77v-18.6Z"/><path class="cls-1" d="M625,432.37a12.52,12.52,0,0,0,3.46-.43,5.28,5.28,0,0,0,3.76-3.79,14.7,14.7,0,0,0,0-7.14,5.75,5.75,0,0,0-1.38-2.42,5.66,5.66,0,0,0-2.38-1.37,12.52,12.52,0,0,0-3.46-.43H621.2v15.58Zm.89-17.09q4.25.12,6.4,2.38c1.43,1.53,2.14,3.83,2.14,6.92s-.71,5.4-2.14,6.92-3.57,2.31-6.4,2.38h-6.43v-18.6Z"/><rect class="cls-1" x="639.4" y="415.28" width="1.77" height="18.59"/><polygon class="cls-1" points="649.01 415.28 659.85 431.01 659.89 431.01 659.89 415.28 661.67 415.28 661.67 433.88 659.68 433.88 648.86 418.15 648.8 418.15 648.8 433.88 647.03 433.88 647.03 415.28 649.01 415.28"/><path class="cls-1" d="M677.34,426.59l-3.59-9.54L670,426.59Zm-2.52-11.31,7.29,18.6h-1.9l-2.27-5.78h-8.46l-2.24,5.78h-1.87l7.47-18.6Z"/><path class="cls-1" d="M698.63,419a5.24,5.24,0,0,0-1.3-1.43,6.15,6.15,0,0,0-1.69-.87,6.31,6.31,0,0,0-1.95-.3,6.68,6.68,0,0,0-3.17.71,6.13,6.13,0,0,0-2.17,1.86,7.86,7.86,0,0,0-1.26,2.62,11.34,11.34,0,0,0,0,6,7.91,7.91,0,0,0,1.26,2.63,6,6,0,0,0,2.17,1.86,6.68,6.68,0,0,0,3.17.71,5.7,5.7,0,0,0,2.35-.47,5.52,5.52,0,0,0,1.8-1.28,6.47,6.47,0,0,0,1.22-1.89,7.62,7.62,0,0,0,.6-2.32h1.77a9.89,9.89,0,0,1-.81,3.09,7.49,7.49,0,0,1-1.61,2.35,6.81,6.81,0,0,1-2.33,1.48,8.12,8.12,0,0,1-3,.52,8.74,8.74,0,0,1-3.83-.79,8,8,0,0,1-2.75-2.12,8.94,8.94,0,0,1-1.64-3.08,12.52,12.52,0,0,1,0-7.34,9,9,0,0,1,1.64-3.08,7.8,7.8,0,0,1,2.75-2.14,9.27,9.27,0,0,1,6.43-.41,7.84,7.84,0,0,1,2.29,1.16,7.06,7.06,0,0,1,1.72,1.89,6.37,6.37,0,0,1,.87,2.58H699.4a5.89,5.89,0,0,0-.77-1.91"/><rect class="cls-1" x="706.27" y="415.28" width="1.77" height="18.59"/><path class="cls-1" d="M723.2,415.28v13.41a9.08,9.08,0,0,1-.29,2.48,4,4,0,0,1-.92,1.72,3.89,3.89,0,0,1-1.67,1,8,8,0,0,1-2.54.34,5.64,5.64,0,0,1-2.6-.53,4.2,4.2,0,0,1-1.59-1.41,5.4,5.4,0,0,1-.78-2,13.06,13.06,0,0,1-.21-2.37h1.77c0,.41,0,.88.08,1.43a4.85,4.85,0,0,0,.37,1.6,3.06,3.06,0,0,0,1,1.28,3.46,3.46,0,0,0,2.1.54,4.45,4.45,0,0,0,1.72-.28,2.32,2.32,0,0,0,1.07-.86,4,4,0,0,0,.55-1.49,13.76,13.76,0,0,0,.15-2.19V415.28Z"/><path class="cls-1" d="M738.9,426.59l-3.59-9.54-3.73,9.54Zm-2.52-11.31,7.29,18.6h-1.9l-2.27-5.78H731l-2.24,5.78h-1.88l7.48-18.6Z"/><polygon class="cls-1" points="769.09 415.28 769.09 416.85 756.85 432.37 769.35 432.37 769.35 433.88 754.86 433.88 754.86 432.32 767.1 416.79 755.7 416.79 755.7 415.28 769.09 415.28"/><path class="cls-1" d="M783.51,426.59l-3.59-9.54-3.73,9.54ZM781,415.28l7.29,18.6h-1.9l-2.27-5.78h-8.46l-2.24,5.78h-1.88l7.48-18.6Z"/><path class="cls-1" d="M802.4,427.56a8.09,8.09,0,0,0,1.25,2.63,6.21,6.21,0,0,0,2.17,1.86,6.72,6.72,0,0,0,3.18.71,6.65,6.65,0,0,0,3.17-.71,6.26,6.26,0,0,0,2.16-1.86,8.09,8.09,0,0,0,1.25-2.63,11.34,11.34,0,0,0,0-6,8,8,0,0,0-1.25-2.62,6.37,6.37,0,0,0-2.16-1.86,6.65,6.65,0,0,0-3.17-.71,6.72,6.72,0,0,0-3.18.71,6.31,6.31,0,0,0-2.17,1.86,8,8,0,0,0-1.25,2.62,11.07,11.07,0,0,0,0,6m-1.63-6.65a9.23,9.23,0,0,1,1.65-3.08,7.76,7.76,0,0,1,2.74-2.14,9.59,9.59,0,0,1,7.67,0,7.91,7.91,0,0,1,2.73,2.14,9.23,9.23,0,0,1,1.65,3.08,12.74,12.74,0,0,1,0,7.34,9.13,9.13,0,0,1-1.65,3.08,8.1,8.1,0,0,1-2.73,2.12,9.7,9.7,0,0,1-7.67,0,8,8,0,0,1-2.74-2.12,9.13,9.13,0,0,1-1.65-3.08,12.52,12.52,0,0,1,0-7.34"/><path class="cls-1" d="M830.9,424.11a4.91,4.91,0,0,0,1.54-.24,4,4,0,0,0,1.28-.72,3.6,3.6,0,0,0,.87-1.13,3.38,3.38,0,0,0,.32-1.53,3.71,3.71,0,0,0-1-2.71,4.18,4.18,0,0,0-3-1h-6.61v7.32Zm.13-8.83a8.14,8.14,0,0,1,2.18.29,5.38,5.38,0,0,1,1.8.87,4.22,4.22,0,0,1,1.22,1.51,4.93,4.93,0,0,1,.45,2.18,5.2,5.2,0,0,1-.91,3.07,4.18,4.18,0,0,1-2.71,1.67v.05a4.32,4.32,0,0,1,1.52.48,3,3,0,0,1,1,.9,3.8,3.8,0,0,1,.55,1.26,9.18,9.18,0,0,1,.22,1.55c0,.31,0,.7,0,1.15s0,.9.1,1.36a10.14,10.14,0,0,0,.25,1.31,2.63,2.63,0,0,0,.46.95h-1.95a2.19,2.19,0,0,1-.25-.64,4.82,4.82,0,0,1-.13-.79c0-.26-.05-.52-.06-.79s0-.48-.06-.67c0-.66-.09-1.32-.17-2a5.43,5.43,0,0,0-.49-1.74A3.06,3.06,0,0,0,833,426a3.33,3.33,0,0,0-2-.42h-6.72v8.26h-1.77v-18.6Z"/><polygon class="cls-1" points="854.78 415.28 854.78 416.79 848.29 416.79 848.29 433.88 846.53 433.88 846.53 416.79 840.07 416.79 840.07 415.28 854.78 415.28"/><path class="cls-1" d="M859.72,427.56a7.89,7.89,0,0,0,1.25,2.63,6.12,6.12,0,0,0,2.17,1.86,6.72,6.72,0,0,0,3.18.71,6.59,6.59,0,0,0,3.16-.71,6.09,6.09,0,0,0,2.16-1.86,7.7,7.7,0,0,0,1.25-2.63,11.07,11.07,0,0,0,0-6,7.66,7.66,0,0,0-1.25-2.62,6.19,6.19,0,0,0-2.16-1.86,6.59,6.59,0,0,0-3.16-.71,6.72,6.72,0,0,0-3.18.71A6.22,6.22,0,0,0,861,419a7.84,7.84,0,0,0-1.25,2.62,11.07,11.07,0,0,0,0,6m-1.63-6.65a9.21,9.21,0,0,1,1.64-3.08,7.89,7.89,0,0,1,2.75-2.14,8.75,8.75,0,0,1,3.84-.8,8.63,8.63,0,0,1,3.82.8,7.85,7.85,0,0,1,2.74,2.14,9,9,0,0,1,1.64,3.08,12.52,12.52,0,0,1,0,7.34,8.94,8.94,0,0,1-1.64,3.08,8,8,0,0,1-2.74,2.12,8.63,8.63,0,0,1-3.82.79,8.75,8.75,0,0,1-3.84-.79,8.08,8.08,0,0,1-2.75-2.12,9.11,9.11,0,0,1-1.64-3.08,12.52,12.52,0,0,1,0-7.34"/><path class="cls-1" d="M885.38,432.37a12.4,12.4,0,0,0,3.45-.43,5.6,5.6,0,0,0,2.38-1.37,5.49,5.49,0,0,0,1.38-2.42,14.7,14.7,0,0,0,0-7.14,5.28,5.28,0,0,0-3.76-3.79,12.4,12.4,0,0,0-3.45-.43h-3.77v15.58Zm.88-17.09c2.83.08,5,.87,6.4,2.38s2.14,3.83,2.14,6.92-.71,5.4-2.14,6.92-3.57,2.31-6.4,2.38h-6.43v-18.6Z"/><path class="cls-1" d="M900.86,427.56a8.09,8.09,0,0,0,1.25,2.63,6.15,6.15,0,0,0,2.18,1.86,7.43,7.43,0,0,0,6.34,0,6.26,6.26,0,0,0,2.16-1.86,8.09,8.09,0,0,0,1.25-2.63,11.34,11.34,0,0,0,0-6,8,8,0,0,0-1.25-2.62,6.37,6.37,0,0,0-2.16-1.86,7.43,7.43,0,0,0-6.34,0,6.25,6.25,0,0,0-2.18,1.86,8,8,0,0,0-1.25,2.62,11.34,11.34,0,0,0,0,6m-1.63-6.65a9.23,9.23,0,0,1,1.65-3.08,7.85,7.85,0,0,1,2.74-2.14,9.59,9.59,0,0,1,7.67,0,7.91,7.91,0,0,1,2.73,2.14,9.23,9.23,0,0,1,1.65,3.08,12.74,12.74,0,0,1,0,7.34,9.13,9.13,0,0,1-1.65,3.08,8.1,8.1,0,0,1-2.73,2.12,9.7,9.7,0,0,1-7.67,0,8,8,0,0,1-2.74-2.12,9.13,9.13,0,0,1-1.65-3.08,12.74,12.74,0,0,1,0-7.34"/><polygon class="cls-1" points="922.93 415.28 933.76 431.01 933.81 431.01 933.81 415.28 935.59 415.28 935.59 433.88 933.61 433.88 922.77 418.15 922.72 418.15 922.72 433.88 920.95 433.88 920.95 415.28 922.93 415.28"/><path class="cls-1" d="M954.14,419a5.28,5.28,0,0,0-1.31-1.43,6,6,0,0,0-1.68-.87,6.31,6.31,0,0,0-1.95-.3,6.65,6.65,0,0,0-3.17.71,6.25,6.25,0,0,0-2.18,1.86,8,8,0,0,0-1.25,2.62,11.34,11.34,0,0,0,0,6,8.09,8.09,0,0,0,1.25,2.63,6.15,6.15,0,0,0,2.18,1.86,6.65,6.65,0,0,0,3.17.71,5.73,5.73,0,0,0,2.35-.47,5.48,5.48,0,0,0,1.79-1.28,6.3,6.3,0,0,0,1.23-1.89,7.92,7.92,0,0,0,.6-2.32h1.77a9.89,9.89,0,0,1-.81,3.09,7.49,7.49,0,0,1-1.61,2.35,6.76,6.76,0,0,1-2.34,1.48,8.07,8.07,0,0,1-3,.52,8.75,8.75,0,0,1-3.84-.79,8,8,0,0,1-2.74-2.12,9.13,9.13,0,0,1-1.65-3.08,12.74,12.74,0,0,1,0-7.34,9.23,9.23,0,0,1,1.65-3.08,7.85,7.85,0,0,1,2.74-2.14,8.75,8.75,0,0,1,3.84-.8,8.65,8.65,0,0,1,2.59.39,7.78,7.78,0,0,1,2.3,1.16,7.06,7.06,0,0,1,1.72,1.89,6.37,6.37,0,0,1,.87,2.58h-1.77a5.89,5.89,0,0,0-.77-1.91"/><rect class="cls-1" x="961.78" y="415.28" width="1.77" height="18.59"/><path class="cls-1" d="M978.71,415.28v13.41a9.49,9.49,0,0,1-.29,2.48,4.07,4.07,0,0,1-.92,1.72,3.89,3.89,0,0,1-1.67,1,8,8,0,0,1-2.54.34,5.69,5.69,0,0,1-2.61-.53,4.25,4.25,0,0,1-1.58-1.41,5.23,5.23,0,0,1-.78-2,13.06,13.06,0,0,1-.21-2.37h1.77c0,.41,0,.88.08,1.43a5.4,5.4,0,0,0,.36,1.6,3.09,3.09,0,0,0,1,1.28,3.46,3.46,0,0,0,2.1.54,4.52,4.52,0,0,0,1.72-.28,2.25,2.25,0,0,0,1.06-.86,3.65,3.65,0,0,0,.55-1.49,12.58,12.58,0,0,0,.16-2.19V415.28Z"/><path class="cls-1" d="M986.05,415.28V426.8a8.77,8.77,0,0,0,.37,2.74,4.54,4.54,0,0,0,1.07,1.85,4,4,0,0,0,1.71,1,8.22,8.22,0,0,0,4.61,0,4,4,0,0,0,1.72-1,4.66,4.66,0,0,0,1.07-1.85,9.1,9.1,0,0,0,.36-2.74V415.28h1.77v11.91a9,9,0,0,1-.4,2.72,5.84,5.84,0,0,1-3.52,3.77,10,10,0,0,1-6.61,0,6,6,0,0,1-2.24-1.52,6,6,0,0,1-1.27-2.25,8.74,8.74,0,0,1-.41-2.72V415.28Z"/><rect class="cls-1" x="397.58" y="371.43" width="3.94" height="7.95"/><rect class="cls-1" x="563.5" y="371.43" width="3.94" height="7.95"/><rect class="cls-1" x="728.02" y="371.43" width="3.94" height="7.95"/><path class="cls-1" d="M348.4,377.76a13,13,0,0,0,6.52-1.54,13.9,13.9,0,0,0,4.56-4.1,18,18,0,0,0,2.7-5.83,25.52,25.52,0,0,0,.89-6.67,25.86,25.86,0,0,0-.89-6.76,19.16,19.16,0,0,0-2.66-5.87,13.26,13.26,0,0,0-4.6-4.13,13.47,13.47,0,0,0-6.6-1.54,13.83,13.83,0,0,0-6.71,1.51,13.29,13.29,0,0,0-4.6,4.05,16.82,16.82,0,0,0-2.62,5.86,29,29,0,0,0-.81,6.88,25.83,25.83,0,0,0,.88,6.75,18.06,18.06,0,0,0,2.71,5.83,13.26,13.26,0,0,0,4.59,4.05,13.71,13.71,0,0,0,6.64,1.51m14.75-6.87H363a17.94,17.94,0,0,1-6.17,7.06,18.52,18.52,0,0,1-16.76.66,15.17,15.17,0,0,1-5.32-4.56,19.5,19.5,0,0,1-3.09-6.6,31.38,31.38,0,0,1,.07-16.06,19,19,0,0,1,3.28-6.6,15.76,15.76,0,0,1,5.53-4.4,17.57,17.57,0,0,1,7.79-1.62,17.06,17.06,0,0,1,4.71.66,16.05,16.05,0,0,1,4.29,1.89,13.66,13.66,0,0,1,5.67,7.25h.16V324.26h2.93v55.12h-2.93Z"/><path class="cls-1" d="M378.36,348.5h.23a9.66,9.66,0,0,1,2-3.63,14,14,0,0,1,3.47-2.94,17.23,17.23,0,0,1,4.56-1.89,18.73,18.73,0,0,1,5.21-.58v2.94a14.09,14.09,0,0,0-5.29.46,12.88,12.88,0,0,0-5.67,3.4,25.53,25.53,0,0,0-1.9,2.24,11.36,11.36,0,0,0-1.35,2.39,15.44,15.44,0,0,0-.85,2.94,26.2,26.2,0,0,0-.38,3.85v21.7h-2.94V339.7h2.94Z"/><path class="cls-1" d="M414.72,339.7h2.93v8.1h.16a10.73,10.73,0,0,1,1.62-3.51,12.51,12.51,0,0,1,2.82-2.9,13.27,13.27,0,0,1,3.7-1.92,13.08,13.08,0,0,1,4.29-.7,14.9,14.9,0,0,1,4.94.73,11.69,11.69,0,0,1,3.55,1.93,9.65,9.65,0,0,1,2.32,2.7,10.73,10.73,0,0,1,1.16,3.06h.15a14.47,14.47,0,0,1,4.75-6.3,13.22,13.22,0,0,1,7.83-2.12,14.78,14.78,0,0,1,5,.81,10.42,10.42,0,0,1,3.94,2.47,11.33,11.33,0,0,1,2.59,4.21,17.56,17.56,0,0,1,.92,6v27.1h-2.93V352.2a12.71,12.71,0,0,0-1.16-5.94,9.26,9.26,0,0,0-2.74-3.28,7.69,7.69,0,0,0-3.16-1.39,15.71,15.71,0,0,0-2.44-.27,13.16,13.16,0,0,0-5,.92A10.52,10.52,0,0,0,446,345a13,13,0,0,0-2.59,4.59,19.54,19.54,0,0,0-.93,6.29v23.47h-2.93V352.2a13.1,13.1,0,0,0-1.12-5.91,9,9,0,0,0-2.62-3.27,7.74,7.74,0,0,0-3.09-1.39,13.57,13.57,0,0,0-2.51-.31,12.45,12.45,0,0,0-8.42,3.47,13.48,13.48,0,0,0-3,4.56,17,17,0,0,0-1.16,6.56v23.47h-2.93Z"/><path class="cls-1" d="M506.37,357.38a24,24,0,0,0-1.09-6.14,15.31,15.31,0,0,0-2.75-5.1,13.76,13.76,0,0,0-4.41-3.51,12.87,12.87,0,0,0-5.92-1.32,13.85,13.85,0,0,0-6.27,1.36,14.1,14.1,0,0,0-4.57,3.55,16,16,0,0,0-2.87,5.13,23.94,23.94,0,0,0-1.23,6Zm-29.19,2.54v.47a23.47,23.47,0,0,0,.93,6.64,16.92,16.92,0,0,0,2.75,5.56,13.05,13.05,0,0,0,4.57,3.78,14,14,0,0,0,6.38,1.39q6,0,9.45-3.13a16.38,16.38,0,0,0,4.8-8.68H509q-1.32,6.94-5.68,10.65t-11.54,3.71a17.44,17.44,0,0,1-7.68-1.59,15.45,15.45,0,0,1-5.48-4.32,18.31,18.31,0,0,1-3.28-6.49,30,30,0,0,1,0-16.05,20.2,20.2,0,0,1,3.36-6.72,16.77,16.77,0,0,1,5.6-4.64,17.13,17.13,0,0,1,7.92-1.73,17,17,0,0,1,7.37,1.54,15.43,15.43,0,0,1,5.36,4.21,18.5,18.5,0,0,1,3.28,6.18,24.53,24.53,0,0,1,1.13,7.53c0,.25,0,.55,0,.88s0,.61,0,.81Z"/><path class="cls-1" d="M532.07,377.76a13.11,13.11,0,0,0,6.53-1.54,14,14,0,0,0,4.55-4.1,18,18,0,0,0,2.7-5.83,25.52,25.52,0,0,0,.89-6.67,25.86,25.86,0,0,0-.89-6.76,19.16,19.16,0,0,0-2.66-5.87,13.22,13.22,0,0,0-4.59-4.13,13.54,13.54,0,0,0-6.61-1.54,13.83,13.83,0,0,0-6.71,1.51,13.38,13.38,0,0,0-4.6,4.05,16.82,16.82,0,0,0-2.62,5.86,29,29,0,0,0-.81,6.88,25.83,25.83,0,0,0,.88,6.75,18.27,18.27,0,0,0,2.71,5.83,13.26,13.26,0,0,0,4.59,4.05,13.71,13.71,0,0,0,6.64,1.51m14.75-6.87h-.16a17.94,17.94,0,0,1-6.17,7.06,18.52,18.52,0,0,1-16.76.66,15.17,15.17,0,0,1-5.32-4.56,19.69,19.69,0,0,1-3.09-6.6,31.24,31.24,0,0,1,.08-16.06,18.67,18.67,0,0,1,3.28-6.6,15.64,15.64,0,0,1,5.52-4.4,17.57,17.57,0,0,1,7.79-1.62,17.06,17.06,0,0,1,4.71.66,15.91,15.91,0,0,1,4.29,1.89,13.54,13.54,0,0,1,5.67,7.25h.16V324.26h2.93v55.12h-2.93Z"/><path class="cls-1" d="M596.46,377.76a13,13,0,0,0,6.52-1.54,13.9,13.9,0,0,0,4.56-4.1,18,18,0,0,0,2.7-5.83,25.52,25.52,0,0,0,.89-6.67,25.86,25.86,0,0,0-.89-6.76,19.16,19.16,0,0,0-2.66-5.87,13.26,13.26,0,0,0-4.6-4.13,13.47,13.47,0,0,0-6.6-1.54,13.83,13.83,0,0,0-6.71,1.51,13.38,13.38,0,0,0-4.6,4.05,16.82,16.82,0,0,0-2.62,5.86,29,29,0,0,0-.81,6.88,25.83,25.83,0,0,0,.88,6.75,18.27,18.27,0,0,0,2.71,5.83,13.35,13.35,0,0,0,4.59,4.05,13.71,13.71,0,0,0,6.64,1.51m14.75-6.87h-.16a18.1,18.1,0,0,1-6.17,7.06,18.52,18.52,0,0,1-16.76.66,15.08,15.08,0,0,1-5.32-4.56,19.69,19.69,0,0,1-3.09-6.6,31.24,31.24,0,0,1,.08-16.06,18.67,18.67,0,0,1,3.28-6.6,15.64,15.64,0,0,1,5.52-4.4,17.57,17.57,0,0,1,7.79-1.62,17.06,17.06,0,0,1,4.71.66,16.05,16.05,0,0,1,4.29,1.89,13.43,13.43,0,0,1,3.43,3.09,13.58,13.58,0,0,1,2.24,4.16h.16V324.26h2.93v55.12h-2.93Z"/><path class="cls-1" d="M653.75,357.38a23.57,23.57,0,0,0-1.09-6.14,15.11,15.11,0,0,0-2.74-5.1,14,14,0,0,0-4.41-3.51,12.94,12.94,0,0,0-5.93-1.32,13.73,13.73,0,0,0-10.83,4.91,15.59,15.59,0,0,0-2.87,5.13,24.41,24.41,0,0,0-1.24,6Zm-29.19,2.54v.47a23.83,23.83,0,0,0,.93,6.64,17.12,17.12,0,0,0,2.75,5.56,13.23,13.23,0,0,0,4.57,3.78,14,14,0,0,0,6.38,1.39q6,0,9.45-3.13a16.38,16.38,0,0,0,4.8-8.68h2.93c-.87,4.63-2.77,8.18-5.67,10.65s-6.76,3.71-11.54,3.71a17.46,17.46,0,0,1-7.69-1.59A15.62,15.62,0,0,1,626,374.4a18.31,18.31,0,0,1-3.28-6.49,28.92,28.92,0,0,1-1.08-8.06,28.15,28.15,0,0,1,1.12-8,19.83,19.83,0,0,1,3.36-6.72,16.83,16.83,0,0,1,5.59-4.64,17.13,17.13,0,0,1,7.92-1.73,16.88,16.88,0,0,1,7.37,1.54,15.37,15.37,0,0,1,5.37,4.21,18.87,18.87,0,0,1,3.28,6.18,24.84,24.84,0,0,1,1.12,7.53c0,.25,0,.55,0,.88s0,.61,0,.81Z"/><path class="cls-1" d="M663.55,339.7h2.94v8.49h.15a12.76,12.76,0,0,1,2.2-4,14.6,14.6,0,0,1,7.45-4.82,17.11,17.11,0,0,1,4.56-.62,17.9,17.9,0,0,1,5.9.85,11.61,11.61,0,0,1,4,2.24,10.76,10.76,0,0,1,2.43,3.12,14.2,14.2,0,0,1,1.27,3.52,20.29,20.29,0,0,1,.47,3.43c.05,1.11.07,2.08.07,2.9v24.55H692V354.29c0-1-.08-2.22-.23-3.71a11.37,11.37,0,0,0-1.35-4.29,9.88,9.88,0,0,0-3.4-3.51,11.64,11.64,0,0,0-6.29-1.46,14,14,0,0,0-6,1.23,13.06,13.06,0,0,0-4.48,3.44,15.06,15.06,0,0,0-2.82,5.25,22.14,22.14,0,0,0-1,6.68v21.46h-2.94Z"/><path class="cls-1" d="M718.21,342.24h-8.64V370a10.44,10.44,0,0,0,.54,3.78,4.31,4.31,0,0,0,1.66,2.13,5.79,5.79,0,0,0,2.7.88,26.74,26.74,0,0,0,3.67.08v2.55a27.63,27.63,0,0,1-4.37,0,8.7,8.7,0,0,1-3.74-1.16,6.79,6.79,0,0,1-2.59-2.89,11,11,0,0,1-.81-5.33V342.24H699.3V339.7h7.33V327.34h2.94V339.7h8.64Z"/><path class="cls-1" d="M771.56,359.38a10.61,10.61,0,0,1-4.94,1.59c-2,.18-3.91.45-5.87.81a17.73,17.73,0,0,0-2.7.66,7.69,7.69,0,0,0-2.31,1.15,5,5,0,0,0-1.59,1.93,6.58,6.58,0,0,0-.58,2.9,3.67,3.67,0,0,0,.85,2.47,6.1,6.1,0,0,0,2.05,1.58,9.43,9.43,0,0,0,2.62.81,15.69,15.69,0,0,0,2.59.23,13.62,13.62,0,0,0,3.16-.39,10.52,10.52,0,0,0,3.21-1.3,8.57,8.57,0,0,0,2.51-2.36,6,6,0,0,0,1-3.52Zm8.8,11.12a4.87,4.87,0,0,0,.42,2.32,1.82,1.82,0,0,0,1.67.69h.92a6,6,0,0,0,1.24-.15v6.1l-1.2.35c-.49.12-1,.24-1.5.34s-1,.18-1.55.23-1,.08-1.31.08a8.52,8.52,0,0,1-4.48-1.08,5.38,5.38,0,0,1-2.31-3.78,15.63,15.63,0,0,1-6.45,3.7,25.16,25.16,0,0,1-7.37,1.16,18.06,18.06,0,0,1-5.18-.73,13.5,13.5,0,0,1-4.36-2.17,10.09,10.09,0,0,1-3-3.63,11.08,11.08,0,0,1-1.12-5.13,11.85,11.85,0,0,1,1.35-6,10.05,10.05,0,0,1,3.55-3.63,16.26,16.26,0,0,1,4.94-1.89q2.75-.57,5.52-.89,2.4-.45,4.56-.66a20.6,20.6,0,0,0,3.82-.65,5.84,5.84,0,0,0,2.63-1.43,3.93,3.93,0,0,0,1-2.9,4.51,4.51,0,0,0-.81-2.77,5.42,5.42,0,0,0-2-1.66,8.93,8.93,0,0,0-2.67-.78,22.93,22.93,0,0,0-2.78-.19,11.07,11.07,0,0,0-6.1,1.55,6,6,0,0,0-2.7,4.78h-8.8a13.23,13.23,0,0,1,1.85-6.41,13,13,0,0,1,4.13-4.09A16.86,16.86,0,0,1,757.9,339a33.82,33.82,0,0,1,6.48-.62,27.38,27.38,0,0,1,5.79.62,16.41,16.41,0,0,1,5.14,2A11,11,0,0,1,779,344.6a9.83,9.83,0,0,1,1.39,5.36Z"/><path class="cls-1" d="M789.86,339.46h8.34v5.87l.15.16a14.83,14.83,0,0,1,5.25-5.22,14.1,14.1,0,0,1,7.18-1.89c4.38,0,7.82,1.13,10.35,3.4s3.78,5.67,3.78,10.19v27.41h-8.8V354.29c-.11-3.14-.77-5.42-2-6.84s-3.17-2.12-5.79-2.12a9.54,9.54,0,0,0-4,.81,8.77,8.77,0,0,0-3,2.24,10.57,10.57,0,0,0-1.92,3.36,11.84,11.84,0,0,0-.7,4.09v23.55h-8.8Z"/><path class="cls-1" d="M858.8,359.38a10.58,10.58,0,0,1-4.94,1.59q-2.93.27-5.87.81a17.73,17.73,0,0,0-2.7.66,7.57,7.57,0,0,0-2.31,1.15,5.12,5.12,0,0,0-1.59,1.93,6.72,6.72,0,0,0-.58,2.9,3.72,3.72,0,0,0,.85,2.47,6.1,6.1,0,0,0,2.05,1.58,9.5,9.5,0,0,0,2.63.81,15.58,15.58,0,0,0,2.58.23,13.71,13.71,0,0,0,3.17-.39,10.47,10.47,0,0,0,3.2-1.3,8.57,8.57,0,0,0,2.51-2.36,6,6,0,0,0,1-3.52Zm8.81,11.12a4.75,4.75,0,0,0,.42,2.32,1.8,1.8,0,0,0,1.66.69h.93a5.94,5.94,0,0,0,1.23-.15v6.1l-1.2.35c-.49.12-1,.24-1.5.34s-1,.18-1.54.23-1,.08-1.32.08a8.46,8.46,0,0,1-4.47-1.08,5.36,5.36,0,0,1-2.32-3.78,15.63,15.63,0,0,1-6.45,3.7,25.1,25.1,0,0,1-7.37,1.16,18,18,0,0,1-5.17-.73,13.46,13.46,0,0,1-4.37-2.17,10.19,10.19,0,0,1-3-3.63A11.08,11.08,0,0,1,832,368.8a11.85,11.85,0,0,1,1.35-6,10.08,10.08,0,0,1,3.56-3.63,16.16,16.16,0,0,1,4.94-1.89c1.82-.38,3.67-.68,5.51-.89q2.4-.45,4.56-.66a20.46,20.46,0,0,0,3.82-.65,5.79,5.79,0,0,0,2.63-1.43,3.93,3.93,0,0,0,1-2.9,4.51,4.51,0,0,0-.81-2.77,5.54,5.54,0,0,0-2-1.66,8.93,8.93,0,0,0-2.67-.78,22.77,22.77,0,0,0-2.77-.19,11.08,11.08,0,0,0-6.11,1.55,6,6,0,0,0-2.7,4.78h-8.8a13.23,13.23,0,0,1,1.85-6.41,13,13,0,0,1,4.13-4.09,16.94,16.94,0,0,1,5.68-2.16,33.9,33.9,0,0,1,6.48-.62,27.38,27.38,0,0,1,5.79.62,16.32,16.32,0,0,1,5.14,2,11.05,11.05,0,0,1,3.67,3.59,9.92,9.92,0,0,1,1.39,5.36Z"/><path class="cls-1" d="M929.52,359.46a20,20,0,0,0-.69-5.25,14.25,14.25,0,0,0-2.08-4.51,10.77,10.77,0,0,0-3.48-3.17,9.4,9.4,0,0,0-4.78-1.2q-5.57,0-8.38,3.86t-2.82,10.27a20.44,20.44,0,0,0,.73,5.6,12.66,12.66,0,0,0,2.2,4.44,11,11,0,0,0,3.52,2.93,10,10,0,0,0,4.75,1.08,9.87,9.87,0,0,0,5.09-1.23,10.86,10.86,0,0,0,3.44-3.2A13.18,13.18,0,0,0,929,364.6a23.2,23.2,0,0,0,.57-5.14m-30.72-20h8.33v5.41h.16a10.84,10.84,0,0,1,5.17-5,17.12,17.12,0,0,1,7.18-1.51,19,19,0,0,1,8.22,1.67,16,16,0,0,1,5.83,4.55,19.66,19.66,0,0,1,3.48,6.75,29.75,29.75,0,0,1,.11,16.06,20.12,20.12,0,0,1-3.16,6.68,15.46,15.46,0,0,1-13,6.37,21.9,21.9,0,0,1-3.86-.35,16.91,16.91,0,0,1-3.71-1.12,14.54,14.54,0,0,1-3.28-2,11.06,11.06,0,0,1-2.51-2.82h-.15v19.91h-8.8Z"/><path class="cls-1" d="M973.14,355.91a14,14,0,0,0-.88-4,10.66,10.66,0,0,0-2-3.36,10,10,0,0,0-3.09-2.32,9.12,9.12,0,0,0-4-.89,10.57,10.57,0,0,0-4.21.81,9.64,9.64,0,0,0-3.24,2.24,11,11,0,0,0-2.16,3.36,11.52,11.52,0,0,0-.89,4.17Zm-20.53,5.79a15.28,15.28,0,0,0,.66,4.48,10.81,10.81,0,0,0,2,3.78,9.49,9.49,0,0,0,3.31,2.59,11,11,0,0,0,4.79,1,10.59,10.59,0,0,0,6.22-1.66,9.78,9.78,0,0,0,3.51-5h8.34a16.8,16.8,0,0,1-2.4,5.79,16.56,16.56,0,0,1-4.09,4.29,17.71,17.71,0,0,1-5.36,2.62,21.75,21.75,0,0,1-6.22.89,21.14,21.14,0,0,1-8.34-1.54,17.15,17.15,0,0,1-6.14-4.33,18.31,18.31,0,0,1-3.78-6.64,26.91,26.91,0,0,1-1.27-8.49,24.07,24.07,0,0,1,1.35-8.07,20.45,20.45,0,0,1,3.86-6.71,18.09,18.09,0,0,1,14.09-6.3,17.88,17.88,0,0,1,8.45,2,18.55,18.55,0,0,1,6.22,5.21,21.4,21.4,0,0,1,3.59,7.45,22.79,22.79,0,0,1,.57,8.69Z"/><path class="cls-1" d="M984.65,339.46h6.64v-12h8.8v12H1008V346h-7.95v21.31a23.31,23.31,0,0,0,.11,2.39,4.11,4.11,0,0,0,.55,1.7,2.55,2.55,0,0,0,1.27,1,6.29,6.29,0,0,0,2.32.35c.61,0,1.23,0,1.85,0a10,10,0,0,0,1.85-.27v6.79l-2.86.31a26.48,26.48,0,0,1-2.85.16,19.76,19.76,0,0,1-5.6-.66,7.48,7.48,0,0,1-3.32-1.93,6.63,6.63,0,0,1-1.62-3.2,24.37,24.37,0,0,1-.5-4.41V346h-6.64Z"/><path class="cls-1" d="M1014.37,339.46h8.26v7.73h.16a8.83,8.83,0,0,1,1.5-3.17,14.64,14.64,0,0,1,2.7-2.82,13.87,13.87,0,0,1,3.52-2.05,10.54,10.54,0,0,1,3.93-.77,19.45,19.45,0,0,1,2.13.08l1.19.16v8.49c-.61-.1-1.24-.2-1.89-.27a15.23,15.23,0,0,0-1.89-.12,10.16,10.16,0,0,0-4.21.89,9.46,9.46,0,0,0-3.43,2.63,12.78,12.78,0,0,0-2.32,4.28,18.47,18.47,0,0,0-.85,5.87v19h-8.8Z"/><path class="cls-1" d="M1058.46,373.51a10.12,10.12,0,0,0,5.09-1.23,10.83,10.83,0,0,0,3.55-3.24,14.2,14.2,0,0,0,2.05-4.52,20.45,20.45,0,0,0,0-10.23,13.63,13.63,0,0,0-2.05-4.52,10.82,10.82,0,0,0-3.55-3.2,11.09,11.09,0,0,0-10.19,0,10.93,10.93,0,0,0-3.55,3.2,13.41,13.41,0,0,0-2,4.52,20.15,20.15,0,0,0,0,10.23,14,14,0,0,0,2,4.52,10.93,10.93,0,0,0,3.55,3.24,10.14,10.14,0,0,0,5.1,1.23m0,6.95a21.77,21.77,0,0,1-8.53-1.58,18.24,18.24,0,0,1-6.34-4.37,18.61,18.61,0,0,1-3.93-6.64,26.93,26.93,0,0,1,0-16.9,18.7,18.7,0,0,1,3.93-6.64,18.21,18.21,0,0,1,6.34-4.36,23.68,23.68,0,0,1,17.06,0,18.27,18.27,0,0,1,6.33,4.36,18.87,18.87,0,0,1,3.94,6.64,27.12,27.12,0,0,1,0,16.9,18.78,18.78,0,0,1-3.94,6.64,18.29,18.29,0,0,1-6.33,4.37,21.84,21.84,0,0,1-8.53,1.58"/><polygon class="cls-1" points="1082 339.46 1091.58 339.46 1101.69 370.11 1101.84 370.11 1111.57 339.46 1120.68 339.46 1106.4 379.38 1096.52 379.38 1082 339.46"/><path class="cls-1" d="M1126.24,339.46h8.8v39.92h-8.8Zm0-15.21h8.8v8.34h-8.8Z"/><path class="cls-1" d="M1165.54,322.86H1176l-11,11.05h-6.41Zm6,30a8.22,8.22,0,0,0-3-5.59,9.67,9.67,0,0,0-6.14-1.9,12.56,12.56,0,0,0-3.63.58,8.67,8.67,0,0,0-3.55,2.16,12.23,12.23,0,0,0-2.7,4.4,21,21,0,0,0-1.08,7.38,21.43,21.43,0,0,0,.58,4.94,13.36,13.36,0,0,0,1.85,4.4,10,10,0,0,0,3.28,3.13,9.41,9.41,0,0,0,4.86,1.19,8.86,8.86,0,0,0,6.37-2.39,11.1,11.1,0,0,0,3.13-6.72h8.8q-1.23,7.8-5.9,11.93t-12.4,4.13a20.43,20.43,0,0,1-8.29-1.58,17.51,17.51,0,0,1-6.07-4.33A18.41,18.41,0,0,1,1144,368a25.45,25.45,0,0,1-1.27-8.18,28.06,28.06,0,0,1,1.23-8.42,19.21,19.21,0,0,1,3.71-6.83,17.15,17.15,0,0,1,6.14-4.55,20.62,20.62,0,0,1,8.6-1.67,24.08,24.08,0,0,1,6.6.89,17.17,17.17,0,0,1,5.56,2.67,14,14,0,0,1,4,4.47,15.29,15.29,0,0,1,1.85,6.41Z"/><path class="cls-2" d="M236.22,373.15c0-38.53-45.75-30.07-71.06-30.07-6.64,0-6.65,10.31,0,10.31,18.2,0,60.64-8.8,60.74,19.76.07,16.51-11.46,18.34-22.18,18.21-12.85-.16-25.71,0-38.56.05a5.23,5.23,0,0,0-5.16,5.16V445c-1.74.58-16.86-17.61-18.31-19.81a227.14,227.14,0,0,1-14.07-24.46,127.07,127.07,0,0,1-9.07-24.88c-5-19.63-6.29-43.54,12.51-56.39,13.33-9.12,31.93-9.78,46.31-2.46,5.91,3,11.14-5.89,5.21-8.91-19.16-9.75-43.22-8.37-60.19,5.07-20.91,16.55-19.57,44.78-13,68.2,4.9,17.59,13.38,33.86,23.44,49,5.14,7.77,29.52,40.61,37.36,17.26a6.21,6.21,0,0,0,.19-2.16s0-.5,0-.54V401.72l18.52,0,14,0c3.52,0,3.31.05,4.64.05,17.56,0,28.7-10.22,28.71-28.58"/><path class="cls-2" d="M261.57,312.65c-17.3-13.22-41.66-14.66-61-4.8-5.92,3-.7,11.92,5.2,8.91C220,309.53,238.51,310,252,318.43c22.31,14.08,21.05,39.9,13.19,62A136,136,0,0,1,253.76,404a230.64,230.64,0,0,1-16.55,24.54c-3.76,4.81-15.89,21.67-16.72,13.07,0-5.23-.26-11.55-.26-16.78,0-6.64-10.32-6.65-10.32,0V435.6c0,1.43.05,1.86,0,2.42,0,7.94,2.11,17.63,12.23,17.16,9.83-.46,18.14-13.93,23.58-20.94,11.14-14.38,21.31-30.31,27.93-47.35,9.92-25.53,11.79-56-12.12-74.24"/></svg>